<svg width="461" height="415" viewBox="0 0 461 415" fill="none" xmlns="http://www.w3.org/2000/svg">
<g filter="url(#filter0_d_2438_11830)">
<circle r="180.952" transform="matrix(-1 0 0 1 228.952 207.5)" fill="#F7FCF0"/>
<g opacity="0.4">
<g filter="url(#filter1_d_2438_11830)">
<path d="M105.502 113.417H355.502V243.195C355.502 245.158 353.931 246.75 351.993 246.75H109.011C107.073 246.75 105.502 245.158 105.502 243.195V113.417Z" fill="white"/>
<path d="M112.793 144.667H155.612C162.332 144.667 164.432 144.454 171.123 144.667C171.199 140.525 170.041 136.572 168.065 134.472C167.212 133.582 166.149 132.924 164.974 132.56C163.8 132.196 162.553 132.137 161.35 132.389C158.457 133.164 156.499 135.111 154.618 136.531C153.953 130.821 151.601 125.59 149.067 124.448C144.71 122.483 140.153 125.596 138.113 128.625C136.469 131.162 135.46 134.061 135.173 137.075C132.432 134.028 126.317 131.708 124.112 136.537C123.23 138.424 123.301 140.608 123.377 142.69C121.577 142.221 119.696 142.155 117.867 142.496C116.039 142.838 114.307 143.579 112.793 144.667V144.667Z" fill="#F6F7F8"/>
<path d="M348.21 225.897C347.202 223.32 345.292 221.939 343.03 221.68C340.182 221.35 337.287 223.043 337.287 223.043C337.287 223.043 338.36 218.792 336.907 215.441C335.913 213.155 334.336 211.009 332.14 210.444C329.869 209.861 327.46 211.009 325.767 212.835C324.075 214.661 322.992 217.047 322.012 219.443C321.513 217.745 320.842 215.842 319.362 215.211C317.882 214.58 316.046 215.689 315.246 217.296C314.446 218.902 314.4 220.868 314.506 222.713C312.726 221.609 310.455 221.279 308.675 222.388C308.092 222.779 307.599 223.298 307.231 223.908C306.862 224.517 306.628 225.203 306.543 225.917L348.21 225.897Z" fill="#F6F7F8"/>
<circle opacity="0.06" cx="230.504" cy="173.833" r="46.875" fill="#0CAA41"/>
<path d="M242.747 160.386C242.747 160.221 242.883 160.081 243.05 160.081H250.873C251.04 160.081 251.17 160.228 251.17 160.392V194.768C251.17 199.38 247.405 203.13 242.747 203.13H217.452C212.788 203.13 209.016 199.392 209.016 194.768H242.747V160.386ZM217.452 144.536C212.788 144.536 209.016 148.286 209.016 152.91V187.286C209.016 187.451 209.158 187.591 209.326 187.591H217.142C217.309 187.591 217.452 187.451 217.452 187.286V152.91H251.17C251.17 148.286 247.405 144.536 242.747 144.536H217.452Z" fill="#0CAA41"/>
<path d="M105.502 106.472C105.502 104.555 107.073 103 109.011 103H351.993C353.931 103 355.502 104.555 355.502 106.472V113.417H105.502V106.472Z" fill="#434396"/>
<circle cx="111.204" cy="108.263" r="1.75439" fill="white"/>
<circle cx="117.344" cy="108.263" r="1.75439" fill="white"/>
<circle cx="123.485" cy="108.263" r="1.75439" fill="white"/>
</g>
<path d="M158.48 227.37H113.776C113.233 227.37 112.793 227.81 112.793 228.353V245.767C112.793 246.31 113.233 246.75 113.776 246.75H158.48C159.023 246.75 159.463 246.31 159.463 245.767V228.353C159.463 227.81 159.023 227.37 158.48 227.37Z" fill="url(#paint0_linear_2438_11830)"/>
<path d="M122.488 233.495C122.488 233.925 122.36 234.346 122.121 234.704C121.882 235.061 121.542 235.34 121.145 235.505C120.747 235.669 120.31 235.713 119.888 235.629C119.466 235.545 119.078 235.337 118.774 235.033C118.47 234.729 118.263 234.341 118.179 233.919C118.095 233.497 118.138 233.06 118.303 232.662C118.467 232.265 118.746 231.925 119.104 231.686C119.462 231.447 119.882 231.32 120.312 231.32C120.598 231.32 120.881 231.376 121.145 231.485C121.409 231.594 121.649 231.755 121.851 231.957C122.053 232.159 122.213 232.399 122.322 232.662C122.432 232.926 122.488 233.209 122.488 233.495Z" fill="#DDDDE8"/>
<path d="M139.825 231.995H124.664V232.835H139.825V231.995Z" fill="#DDDDE8"/>
<path d="M154.152 233.904H124.664V234.744H154.152V233.904Z" fill="#DDDDE8"/>
<path opacity="0.12" d="M122.488 240.182C122.488 240.613 122.36 241.033 122.121 241.391C121.882 241.749 121.542 242.028 121.145 242.192C120.747 242.357 120.31 242.4 119.888 242.316C119.466 242.232 119.078 242.025 118.774 241.721C118.47 241.416 118.263 241.029 118.179 240.607C118.095 240.185 118.138 239.747 118.303 239.35C118.467 238.952 118.746 238.613 119.104 238.374C119.462 238.135 119.882 238.007 120.312 238.007C120.889 238.008 121.442 238.238 121.85 238.645C122.257 239.053 122.487 239.606 122.488 240.182Z" fill="#DDDDE8"/>
<path opacity="0.12" d="M132.406 238.682H124.664V239.522H132.406V238.682Z" fill="#DDDDE8"/>
<path opacity="0.12" d="M154.152 240.595H124.664V241.435H154.152V240.595Z" fill="#7D7D82"/>
</g>
<g filter="url(#filter2_d_2438_11830)">
<path d="M93.0021 131.958H368.002V274.714C368.002 276.874 366.274 278.625 364.142 278.625H96.8617C94.7301 278.625 93.0021 276.874 93.0021 274.714V131.958Z" fill="white"/>
<path d="M101.024 166.333H148.124C155.517 166.333 157.826 166.099 165.186 166.333C165.27 161.777 163.996 157.429 161.823 155.118C160.884 154.14 159.715 153.416 158.423 153.016C157.131 152.615 155.76 152.55 154.436 152.827C151.254 153.68 149.1 155.821 147.031 157.383C146.3 151.102 143.712 145.349 140.925 144.092C136.132 141.931 131.119 145.355 128.875 148.688C127.067 151.478 125.957 154.667 125.641 157.982C122.627 154.63 115.9 152.079 113.475 157.39C112.504 159.466 112.582 161.868 112.666 164.159C110.685 163.643 108.617 163.57 106.605 163.946C104.593 164.321 102.688 165.136 101.024 166.333V166.333Z" fill="#F6F7F8"/>
<path d="M359.982 255.687C358.873 252.852 356.772 251.332 354.285 251.048C351.151 250.685 347.967 252.547 347.967 252.547C347.967 252.547 349.147 247.872 347.549 244.185C346.456 241.671 344.721 239.309 342.305 238.689C339.807 238.047 337.157 239.309 335.295 241.318C333.433 243.327 332.243 245.952 331.164 248.587C330.615 246.72 329.877 244.627 328.25 243.932C326.622 243.238 324.602 244.458 323.722 246.225C322.842 247.993 322.791 250.154 322.908 252.184C320.95 250.969 318.452 250.606 316.494 251.827C315.852 252.257 315.31 252.828 314.905 253.498C314.5 254.169 314.241 254.923 314.149 255.708L359.982 255.687Z" fill="#F6F7F8"/>
<circle opacity="0.06" cx="230.502" cy="198.417" r="51.5625" fill="black"/>
<path fill-rule="evenodd" clip-rule="evenodd" d="M210.11 182.395V196.624C209.096 196.725 208.274 196.906 207.64 197.156C207.003 197.41 206.333 197.844 205.623 198.449C203.592 200.024 202.577 202.05 202.577 204.537C202.563 205.31 202.667 206.08 202.884 206.822C203.592 206.216 204.29 205.805 204.975 205.605C205.659 205.402 206.51 205.298 207.527 205.298C208.031 205.298 208.44 205.354 208.744 205.453C209.048 205.557 209.507 205.754 210.113 206.064V220.062L220.615 230.644L230.281 220.823L241.924 230.644L258.894 214.208V186.048L248.392 177.983L240.631 184.984L230.056 177.983L220.618 185.899V181.256C220.618 179.735 219.528 178.011 217.348 176.084C216.688 175.628 216.066 175.157 215.483 174.676C214.899 174.194 214.556 173.507 214.457 172.622C214.367 171.902 214.316 171.178 214.305 170.453C214.305 168.729 214.888 167.357 216.057 166.343C215.629 166.261 215.196 166.21 214.761 166.19C212.48 166.19 210.462 167.14 208.713 169.044C206.961 170.949 206.088 173.067 206.088 175.4C206.088 175.755 206.138 176.236 206.24 176.845C206.685 179.327 207.978 181.178 210.11 182.395ZM220.613 188.102L223.43 185.896L229.289 191.832V219.152L226.931 221.584L220.615 215.499L220.613 188.102ZM240.625 188.102L243.366 185.896L249.302 191.832V219.152L246.865 221.584L240.625 215.499V188.102Z" fill="black"/>
<path d="M93.0021 124.319C93.0021 122.21 94.7301 120.5 96.8617 120.5H364.142C366.274 120.5 368.002 122.21 368.002 124.319V131.958H93.0021V124.319Z" fill="#434396"/>
<circle cx="99.2737" cy="126.289" r="1.92982" fill="white"/>
<circle cx="106.028" cy="126.289" r="1.92982" fill="white"/>
<circle cx="112.784" cy="126.289" r="1.92982" fill="white"/>
</g>
<path d="M255.131 232.792H205.956C205.359 232.792 204.875 233.276 204.875 233.873V253.029C204.875 253.626 205.359 254.11 205.956 254.11H255.131C255.728 254.11 256.212 253.626 256.212 253.029V233.873C256.212 233.276 255.728 232.792 255.131 232.792Z" fill="#434396"/>
<path d="M213.097 237.055C211.752 237.055 210.66 238.147 210.66 239.491C210.66 240.836 211.752 241.928 213.097 241.928C214.442 241.928 215.533 240.836 215.533 239.491C215.533 238.147 214.442 237.055 213.097 237.055ZM212.609 240.71L211.391 239.491L211.735 239.148L212.609 240.02L214.459 238.171L214.802 238.517L212.609 240.71Z" fill="#34CCA9"/>
<path d="M213.097 244.516C211.752 244.516 210.66 245.608 210.66 246.953C210.66 248.298 211.752 249.389 213.097 249.389C214.442 249.389 215.533 248.298 215.533 246.953C215.533 245.608 214.442 244.516 213.097 244.516ZM212.609 248.171L211.391 246.953L211.735 246.609L212.609 247.481L214.459 245.632L214.802 245.978L212.609 248.171Z" fill="#34CCA9"/>
<path d="M234.61 238.031H217.934V238.955H234.61V238.031Z" fill="#34CCA9"/>
<path d="M250.371 240.131H217.934V241.055H250.371V240.131Z" fill="white"/>
<path d="M226.449 245.387H217.934V246.311H226.449V245.387Z" fill="#34CCA9"/>
<path d="M250.371 247.491H217.934V248.416H250.371V247.491Z" fill="white"/>
<path d="M255.131 257.307H205.956C205.359 257.307 204.875 257.791 204.875 258.388V277.544C204.875 278.141 205.359 278.625 205.956 278.625H255.131C255.728 278.625 256.212 278.141 256.212 277.544V258.388C256.212 257.791 255.728 257.307 255.131 257.307Z" fill="url(#paint1_linear_2438_11830)"/>
<path d="M215.54 264.044C215.54 264.518 215.4 264.98 215.137 265.374C214.874 265.767 214.5 266.074 214.063 266.255C213.626 266.436 213.144 266.484 212.68 266.391C212.216 266.299 211.79 266.071 211.455 265.736C211.12 265.402 210.892 264.975 210.8 264.511C210.708 264.047 210.755 263.566 210.936 263.129C211.117 262.691 211.424 262.318 211.818 262.055C212.211 261.792 212.674 261.651 213.147 261.651C213.461 261.651 213.772 261.713 214.063 261.834C214.353 261.954 214.617 262.13 214.839 262.352C215.061 262.574 215.238 262.838 215.358 263.129C215.478 263.419 215.54 263.73 215.54 264.044Z" fill="#DDDDE8"/>
<path d="M234.61 262.395H217.934V263.319H234.61V262.395Z" fill="#DDDDE8"/>
<path d="M250.371 264.494H217.934V265.418H250.371V264.494Z" fill="#DDDDE8"/>
<path opacity="0.12" d="M215.54 271.401C215.54 271.874 215.4 272.337 215.137 272.73C214.874 273.124 214.5 273.43 214.063 273.612C213.626 273.793 213.144 273.84 212.68 273.748C212.216 273.655 211.79 273.427 211.455 273.093C211.12 272.758 210.892 272.332 210.8 271.868C210.708 271.403 210.755 270.922 210.936 270.485C211.117 270.048 211.424 269.674 211.818 269.411C212.211 269.148 212.674 269.008 213.147 269.008C213.781 269.009 214.389 269.261 214.838 269.71C215.286 270.158 215.539 270.766 215.54 271.401Z" fill="#DDDDE8"/>
<path opacity="0.12" d="M226.449 269.75H217.934V270.675H226.449V269.75Z" fill="#DDDDE8"/>
<path opacity="0.12" d="M250.371 271.854H217.934V272.779H250.371V271.854Z" fill="#7D7D82"/>
<g filter="url(#filter3_d_2438_11830)">
<path d="M80.5001 153H380.5V308.733C380.5 311.09 378.615 313 376.29 313H84.7107C82.3853 313 80.5001 311.09 80.5001 308.733V153Z" fill="white"/>
<path d="M89.2502 190.5H140.632C148.697 190.5 151.216 190.244 159.246 190.5C159.338 185.53 157.948 180.786 155.577 178.266C154.553 177.198 153.277 176.409 151.868 175.972C150.459 175.535 148.962 175.464 147.519 175.766C144.047 176.696 141.698 179.033 139.44 180.737C138.642 173.885 135.82 167.608 132.779 166.237C127.55 163.88 122.082 167.615 119.633 171.25C117.661 174.294 116.451 177.773 116.105 181.39C112.817 177.733 105.479 174.95 102.833 180.744C101.775 183.009 101.859 185.629 101.951 188.128C99.7905 187.565 97.5335 187.486 95.339 187.895C93.1446 188.305 91.0662 189.194 89.2502 190.5V190.5Z" fill="#F6F7F8"/>
<circle opacity="0.06" cx="230.5" cy="225.5" r="56.25" fill="#78C800"/>
<path d="M219.075 188C225.551 188 227.091 196.422 239.867 196.422C247.929 196.422 248.381 193.16 252.097 193.16C253.616 193.16 254.479 196.005 254.479 197.902C254.479 205.401 252.512 213.783 253.79 213.783C255.464 213.783 262.263 209.486 264.025 209.486C265.699 209.486 265.655 210.758 265.655 211.47C265.655 212.181 266.169 224.606 248.988 234.394C248.239 234.825 244.597 250.346 231.762 250.346C223.187 250.346 216.667 245.806 214.17 234.94C213.671 232.698 195.344 225.626 195.344 210.046C195.344 206.625 196.225 204.757 197.576 204.757C200.954 204.757 208.179 210.305 211.292 210.305C213.986 210.305 213.553 204.555 213.553 202.831C213.553 201.107 213.406 188 219.075 188Z" fill="#78C800"/>
<path d="M248.878 199.058C247.711 199.058 247.429 199.648 247.014 199.279C246.826 199.095 247.824 198.671 247.824 198.487C247.824 198.395 247.673 198.413 247.467 198.413C246.243 198.413 243.833 200.164 243.493 200.164C243.343 200.164 243.098 200.201 243.098 199.98C243.098 199.482 244.811 199.059 243.625 199.059C242.439 199.059 240.688 200.551 238.861 200.551C235.095 200.551 232.064 197.658 232.064 198.377C232.064 198.635 232.497 199.04 232.779 199.556C232.779 199.556 232.949 200.33 232.628 200.036C229.173 196.654 225.718 195.833 225.718 195.833C225.718 195.833 225.454 195.833 225.454 195.944C225.454 196.331 226.207 196.847 226.207 196.995C226.207 197.142 226.113 197.234 225.963 197.234C225.228 197.234 224.701 195.852 221.745 195.852C217.282 195.852 216.053 202.726 216.053 208.366C216.053 216.364 221.312 218.905 225.661 218.905C229.111 218.905 232.804 216.915 234.35 213.992L238.941 214.335C238.941 214.335 241.191 218.509 245.239 218.509C249.039 218.509 252.343 216.156 252.343 207.997C252.343 199.427 250.046 199.058 248.878 199.058Z" fill="#8EE000"/>
<path d="M225.191 215.691C228.435 215.691 231.065 212.561 231.065 208.7C231.065 204.84 228.435 201.71 225.191 201.71C221.946 201.71 219.317 204.84 219.317 208.7C219.317 212.561 221.946 215.691 225.191 215.691Z" fill="white"/>
<path d="M250.195 210.02C250.009 213.416 247.663 216.097 244.956 216.007C242.248 215.918 240.203 213.093 240.389 209.697C240.575 206.301 242.921 203.62 245.629 203.709C248.337 203.798 250.381 206.624 250.195 210.02Z" fill="white"/>
<path d="M225.069 212.54C226.851 212.54 228.295 210.821 228.295 208.7C228.295 206.579 226.851 204.86 225.069 204.86C223.287 204.86 221.842 206.579 221.842 208.7C221.842 210.821 223.287 212.54 225.069 212.54Z" fill="#3F3F3F"/>
<path d="M222.974 207.862C223.809 207.862 224.486 207.147 224.486 206.264C224.486 205.382 223.809 204.666 222.974 204.666C222.14 204.666 221.463 205.382 221.463 206.264C221.463 207.147 222.14 207.862 222.974 207.862Z" fill="white"/>
<path d="M247.983 210.019C247.835 212.016 246.472 213.576 244.938 213.504C243.404 213.432 242.28 211.755 242.427 209.759C242.575 207.762 243.938 206.202 245.472 206.274C247.006 206.346 248.13 208.022 247.983 210.019Z" fill="#3F3F3F"/>
<path d="M232.701 216.757C232.701 216.757 231.758 224.486 234.342 224.432C236.926 224.379 236.815 220.675 236.799 220.631C236.783 220.587 232.701 216.757 232.701 216.757Z" fill="#71B200"/>
<path d="M244.776 207.694C244.803 208.507 244.223 209.186 243.481 209.208C242.74 209.23 242.117 208.589 242.091 207.774C242.064 206.96 242.644 206.282 243.386 206.26C244.127 206.238 244.75 206.88 244.776 207.694Z" fill="white"/>
<path d="M262.722 221.499C259.329 226.345 252.225 230.169 251.059 230.169C249.737 230.169 250.647 228.79 249.707 228.79C248.856 228.79 248.68 243.305 233.496 243.305C216.432 243.305 216.814 226.03 215.169 226.03C213.965 226.03 214.758 228.559 213.466 228.559C209.15 228.559 197.655 220.021 195.744 213.954C198.424 226.831 213.715 232.896 214.171 234.941C216.667 245.807 223.187 250.348 231.763 250.348C244.598 250.348 248.24 234.826 248.989 234.395C256.08 230.354 260.259 225.664 262.722 221.499Z" fill="#71B200"/>
<path d="M232.699 215.967C232.699 215.967 232.144 221.618 234.955 221.618C237.765 221.618 239.163 219.361 239.163 217.334C239.163 215.308 232.699 215.967 232.699 215.967Z" fill="#F49000"/>
<path d="M236.925 212.623C238.97 212.623 240.511 214.946 240.511 217.245C240.511 219.543 238.591 221.891 237.96 221.891C237.329 221.891 232.682 217.665 232.682 215.861C232.682 214.056 234.45 212.623 236.925 212.623Z" fill="#FFC200"/>
<path d="M238.208 214.042C238.231 213.642 237.642 213.285 236.893 213.244C236.144 213.204 235.519 213.495 235.496 213.895C235.473 214.295 236.062 214.652 236.811 214.692C237.56 214.733 238.186 214.442 238.208 214.042Z" fill="#FFF3B8"/>
<path d="M229.225 252.447C231.421 252.334 232.997 252.792 233.1 254.721C233.203 256.651 230.528 257.156 229.106 257.228C227.684 257.301 226.073 256.674 225.999 255.281C225.925 253.89 227.242 252.549 229.225 252.447ZM242.716 248.501C244.812 248.394 244.856 250.62 244.865 250.791C244.874 250.962 245.089 253.106 241.421 253.295C239.101 253.414 239.171 252.394 239.144 251.893C239.118 251.392 240.058 248.638 242.716 248.501Z" fill="#D98500"/>
<path d="M231.815 264.715C242.268 264.715 250.742 263.939 250.742 262.982C250.742 262.025 242.268 261.249 231.815 261.249C221.362 261.249 212.889 262.025 212.889 262.982C212.889 263.939 221.362 264.715 231.815 264.715Z" fill="#E0E0E0"/>
<path d="M80.5001 144.667C80.5001 142.365 82.3853 140.5 84.7107 140.5H376.29C378.615 140.5 380.5 142.365 380.5 144.667V153H80.5001V144.667Z" fill="#434396"/>
<circle cx="87.3417" cy="146.816" r="2.10526" fill="white"/>
<circle cx="94.7109" cy="146.816" r="2.10526" fill="white"/>
<circle cx="102.08" cy="146.816" r="2.10526" fill="white"/>
</g>
<path d="M144.077 263H90.4313C89.78 263 89.2521 263.528 89.2521 264.179V285.077C89.2521 285.728 89.78 286.256 90.4313 286.256H144.077C144.728 286.256 145.256 285.728 145.256 285.077V264.179C145.256 263.528 144.728 263 144.077 263Z" fill="#434396"/>
<path d="M98.2224 267.651C96.7553 267.651 95.5646 268.842 95.5646 270.309C95.5646 271.776 96.7553 272.967 98.2224 272.967C99.6895 272.967 100.88 271.776 100.88 270.309C100.88 268.842 99.6895 267.651 98.2224 267.651ZM97.6908 271.638L96.3619 270.309L96.7367 269.934L97.6908 270.886L99.7081 268.869L100.083 269.246L97.6908 271.638Z" fill="#34CCA9"/>
<path d="M98.2224 275.791C96.7553 275.791 95.5646 276.982 95.5646 278.449C95.5646 279.916 96.7553 281.107 98.2224 281.107C99.6895 281.107 100.88 279.916 100.88 278.449C100.88 276.982 99.6895 275.791 98.2224 275.791ZM97.6908 279.778L96.3619 278.449L96.7367 278.074L97.6908 279.026L99.7081 277.008L100.083 277.386L97.6908 279.778Z" fill="#34CCA9"/>
<path d="M121.689 268.716H103.496V269.724H121.689V268.716Z" fill="#34CCA9"/>
<path d="M138.882 271.007H103.496V272.015H138.882V271.007Z" fill="white"/>
<path d="M112.786 276.741H103.496V277.749H112.786V276.741Z" fill="#34CCA9"/>
<path d="M138.882 279.036H103.496V280.044H138.882V279.036Z" fill="white"/>
<path d="M144.077 289.744H90.4313C89.7801 289.744 89.2521 290.272 89.2521 290.923V311.821C89.2521 312.472 89.7801 313 90.4313 313H144.077C144.728 313 145.256 312.472 145.256 311.821V290.923C145.256 290.272 144.728 289.744 144.077 289.744Z" fill="url(#paint2_linear_2438_11830)"/>
<path d="M100.887 297.094C100.887 297.61 100.734 298.115 100.447 298.544C100.16 298.973 99.7527 299.308 99.2757 299.506C98.7987 299.703 98.2738 299.755 97.7674 299.654C97.261 299.553 96.7959 299.305 96.4308 298.94C96.0657 298.575 95.8171 298.11 95.7163 297.603C95.6156 297.097 95.6673 296.572 95.8649 296.095C96.0625 295.618 96.3971 295.21 96.8264 294.923C97.2557 294.637 97.7604 294.483 98.2767 294.483C98.6195 294.483 98.9589 294.551 99.2757 294.682C99.5924 294.813 99.8802 295.006 100.123 295.248C100.365 295.49 100.557 295.778 100.688 296.095C100.82 296.412 100.887 296.751 100.887 297.094Z" fill="#DDDDE8"/>
<path d="M121.689 295.294H103.496V296.302H121.689V295.294Z" fill="#DDDDE8"/>
<path d="M138.882 297.584H103.496V298.593H138.882V297.584Z" fill="#DDDDE8"/>
<path opacity="0.12" d="M100.887 305.119C100.887 305.636 100.734 306.14 100.447 306.57C100.16 306.999 99.7527 307.333 99.2757 307.531C98.7987 307.729 98.2738 307.78 97.7674 307.68C97.261 307.579 96.7959 307.33 96.4308 306.965C96.0657 306.6 95.8171 306.135 95.7163 305.629C95.6156 305.122 95.6673 304.597 95.8649 304.12C96.0625 303.643 96.3971 303.236 96.8264 302.949C97.2557 302.662 97.7604 302.509 98.2767 302.509C98.9686 302.51 99.6319 302.785 100.121 303.275C100.611 303.764 100.886 304.427 100.887 305.119Z" fill="#DDDDE8"/>
<path opacity="0.12" d="M112.786 303.318H103.496V304.327H112.786V303.318Z" fill="#DDDDE8"/>
<path opacity="0.12" d="M138.882 305.614H103.496V306.622H138.882V305.614Z" fill="#7D7D82"/>
<path d="M419 293.593C419 316.432 403.033 336.08 380.799 340.847C358.516 336.072 342.598 316.381 342.598 293.593V267.171C355.835 267.171 368.345 264.736 380.799 258.987C400.582 268.116 418.259 267.087 418.691 267.173L419 293.593Z" fill="#434396"/>
<path d="M388.985 297.189C387.478 297.189 386.257 295.967 386.257 294.46V287.638C386.257 284.629 383.809 282.181 380.8 282.181C377.79 282.181 375.342 284.629 375.342 287.638V294.46C375.342 295.967 374.121 297.189 372.614 297.189C371.107 297.189 369.885 295.967 369.885 294.46V287.638C369.885 281.62 374.781 276.724 380.8 276.724C386.818 276.724 391.714 281.62 391.714 287.638V294.46C391.714 295.967 390.493 297.189 388.985 297.189Z" fill="white"/>
<path d="M397.17 295.551V315.197C397.17 317.006 395.705 318.472 393.896 318.472H367.701C365.892 318.472 364.426 317.006 364.426 315.197C364.426 293.779 364.369 295.267 364.557 294.632C364.954 293.271 366.211 292.277 367.701 292.277H393.896C395.705 292.277 397.17 293.742 397.17 295.551Z" fill="#8EE000"/>
<path d="M380.799 309.467C379.292 309.467 378.07 308.246 378.07 306.738V304.01C378.07 302.503 379.292 301.281 380.799 301.281C382.306 301.281 383.528 302.503 383.528 304.01V306.739C383.528 308.246 382.306 309.467 380.799 309.467Z" fill="white"/>
</g>
<defs>
<filter id="filter0_d_2438_11830" x="23.9999" y="0.547852" width="419" height="409.905" filterUnits="userSpaceOnUse" color-interpolation-filters="sRGB">
<feFlood flood-opacity="0" result="BackgroundImageFix"/>
<feColorMatrix in="SourceAlpha" type="matrix" values="0 0 0 0 0 0 0 0 0 0 0 0 0 0 0 0 0 0 127 0" result="hardAlpha"/>
<feOffset dy="-2"/>
<feGaussianBlur stdDeviation="12"/>
<feComposite in2="hardAlpha" operator="out"/>
<feColorMatrix type="matrix" values="0 0 0 0 0.952941 0 0 0 0 0.972549 0 0 0 0 0.92549 0 0 0 1 0"/>
<feBlend mode="normal" in2="BackgroundImageFix" result="effect1_dropShadow_2438_11830"/>
<feBlend mode="normal" in="SourceGraphic" in2="effect1_dropShadow_2438_11830" result="shape"/>
</filter>
<filter id="filter1_d_2438_11830" x="25.5021" y="31" width="410" height="303.75" filterUnits="userSpaceOnUse" color-interpolation-filters="sRGB">
<feFlood flood-opacity="0" result="BackgroundImageFix"/>
<feColorMatrix in="SourceAlpha" type="matrix" values="0 0 0 0 0 0 0 0 0 0 0 0 0 0 0 0 0 0 127 0" result="hardAlpha"/>
<feOffset dy="8"/>
<feGaussianBlur stdDeviation="40"/>
<feColorMatrix type="matrix" values="0 0 0 0 0.109804 0 0 0 0 0.109804 0 0 0 0 0.12549 0 0 0 0.12 0"/>
<feBlend mode="normal" in2="BackgroundImageFix" result="effect1_dropShadow_2438_11830"/>
<feBlend mode="normal" in="SourceGraphic" in2="effect1_dropShadow_2438_11830" result="shape"/>
</filter>
<filter id="filter2_d_2438_11830" x="13.0021" y="48.5" width="435" height="318.125" filterUnits="userSpaceOnUse" color-interpolation-filters="sRGB">
<feFlood flood-opacity="0" result="BackgroundImageFix"/>
<feColorMatrix in="SourceAlpha" type="matrix" values="0 0 0 0 0 0 0 0 0 0 0 0 0 0 0 0 0 0 127 0" result="hardAlpha"/>
<feOffset dy="8"/>
<feGaussianBlur stdDeviation="40"/>
<feColorMatrix type="matrix" values="0 0 0 0 0.109804 0 0 0 0 0.109804 0 0 0 0 0.12549 0 0 0 0.12 0"/>
<feBlend mode="normal" in2="BackgroundImageFix" result="effect1_dropShadow_2438_11830"/>
<feBlend mode="normal" in="SourceGraphic" in2="effect1_dropShadow_2438_11830" result="shape"/>
</filter>
<filter id="filter3_d_2438_11830" x="0.500137" y="68.5" width="460" height="332.5" filterUnits="userSpaceOnUse" color-interpolation-filters="sRGB">
<feFlood flood-opacity="0" result="BackgroundImageFix"/>
<feColorMatrix in="SourceAlpha" type="matrix" values="0 0 0 0 0 0 0 0 0 0 0 0 0 0 0 0 0 0 127 0" result="hardAlpha"/>
<feOffset dy="8"/>
<feGaussianBlur stdDeviation="40"/>
<feColorMatrix type="matrix" values="0 0 0 0 0.109804 0 0 0 0 0.109804 0 0 0 0 0.12549 0 0 0 0.12 0"/>
<feBlend mode="normal" in2="BackgroundImageFix" result="effect1_dropShadow_2438_11830"/>
<feBlend mode="normal" in="SourceGraphic" in2="effect1_dropShadow_2438_11830" result="shape"/>
</filter>
<linearGradient id="paint0_linear_2438_11830" x1="136.128" y1="227.37" x2="136.128" y2="246.75" gradientUnits="userSpaceOnUse">
<stop stop-color="#F3F4F8"/>
<stop offset="1" stop-color="#F3F4F8" stop-opacity="0"/>
</linearGradient>
<linearGradient id="paint1_linear_2438_11830" x1="230.544" y1="257.307" x2="230.544" y2="278.625" gradientUnits="userSpaceOnUse">
<stop stop-color="#F3F4F8"/>
<stop offset="1" stop-color="#F3F4F8" stop-opacity="0"/>
</linearGradient>
<linearGradient id="paint2_linear_2438_11830" x1="117.254" y1="289.744" x2="117.254" y2="313" gradientUnits="userSpaceOnUse">
<stop stop-color="#F3F4F8"/>
<stop offset="1" stop-color="#F3F4F8" stop-opacity="0"/>
</linearGradient>
</defs>
</svg>
