<svg width="493" height="491" viewBox="0 0 493 491" fill="none" xmlns="http://www.w3.org/2000/svg">
<rect y="22.5" width="300" height="330" rx="6" fill="url(#paint0_linear_3219_16475)"/>
<rect x="30" y="52.5" width="240" height="180" rx="6" fill="white"/>
<path d="M93.0767 254.72C93.4183 253.899 94.5817 253.899 94.9233 254.72L97.4685 260.839C97.6125 261.185 97.9381 261.422 98.3119 261.452L104.918 261.982C105.805 262.053 106.164 263.159 105.489 263.738L100.456 268.049C100.171 268.293 100.046 268.676 100.133 269.041L101.671 275.488C101.878 276.353 100.936 277.037 100.177 276.573L94.5213 273.118C94.2012 272.923 93.7988 272.923 93.4787 273.118L87.8228 276.573C87.0637 277.037 86.1225 276.353 86.3289 275.488L87.8666 269.041C87.9536 268.676 87.8293 268.293 87.5445 268.049L82.5112 263.738C81.8356 263.159 82.1952 262.053 83.0818 261.982L89.6881 261.452C90.0619 261.422 90.3875 261.185 90.5315 260.839L93.0767 254.72Z" fill="#DDDDE8"/>
<path d="M121.077 254.72C121.418 253.899 122.582 253.899 122.923 254.72L125.468 260.839C125.612 261.185 125.938 261.422 126.312 261.452L132.918 261.982C133.805 262.053 134.164 263.159 133.489 263.738L128.456 268.049C128.171 268.293 128.046 268.676 128.133 269.041L129.671 275.488C129.878 276.353 128.936 277.037 128.177 276.573L122.521 273.118C122.201 272.923 121.799 272.923 121.479 273.118L115.823 276.573C115.064 277.037 114.122 276.353 114.329 275.488L115.867 269.041C115.954 268.676 115.829 268.293 115.544 268.049L110.511 263.738C109.836 263.159 110.195 262.053 111.082 261.982L117.688 261.452C118.062 261.422 118.388 261.185 118.532 260.839L121.077 254.72Z" fill="#DDDDE8"/>
<path d="M149.077 254.72C149.418 253.899 150.582 253.899 150.923 254.72L153.468 260.839C153.612 261.185 153.938 261.422 154.312 261.452L160.918 261.982C161.805 262.053 162.164 263.159 161.489 263.738L156.456 268.049C156.171 268.293 156.046 268.676 156.133 269.041L157.671 275.488C157.878 276.353 156.936 277.037 156.177 276.573L150.521 273.118C150.201 272.923 149.799 272.923 149.479 273.118L143.823 276.573C143.064 277.037 142.122 276.353 142.329 275.488L143.867 269.041C143.954 268.676 143.829 268.293 143.544 268.049L138.511 263.738C137.836 263.159 138.195 262.053 139.082 261.982L145.688 261.452C146.062 261.422 146.388 261.185 146.532 260.839L149.077 254.72Z" fill="#DDDDE8"/>
<path d="M177.538 254.912C177.709 254.501 178.291 254.501 178.462 254.912L181.007 261.031C181.223 261.551 181.711 261.905 182.272 261.95L188.878 262.48C189.322 262.516 189.501 263.069 189.164 263.358L184.13 267.67C183.703 268.036 183.517 268.61 183.647 269.157L185.185 275.604C185.288 276.036 184.817 276.378 184.438 276.146L178.782 272.692C178.302 272.398 177.698 272.398 177.218 272.692L171.562 276.146C171.183 276.378 170.712 276.036 170.815 275.604L172.353 269.157C172.483 268.61 172.297 268.036 171.87 267.67L166.836 263.358C166.499 263.069 166.678 262.516 167.122 262.48L173.728 261.95C174.289 261.905 174.777 261.551 174.993 261.031L177.538 254.912Z" stroke="#DDDDE8"/>
<path d="M205.538 254.912C205.709 254.501 206.291 254.501 206.462 254.912L209.007 261.031C209.223 261.551 209.711 261.905 210.272 261.95L216.878 262.48C217.322 262.516 217.501 263.069 217.164 263.358L212.13 267.67C211.703 268.036 211.517 268.61 211.647 269.157L213.185 275.604C213.288 276.036 212.817 276.378 212.438 276.146L206.782 272.692C206.302 272.398 205.698 272.398 205.218 272.692L199.562 276.146C199.183 276.378 198.712 276.036 198.815 275.604L200.353 269.157C200.483 268.61 200.297 268.036 199.87 267.67L194.836 263.358C194.499 263.069 194.678 262.516 195.122 262.48L201.728 261.95C202.289 261.905 202.777 261.551 202.993 261.031L205.538 254.912Z" stroke="#DDDDE8"/>
<g opacity="0.5" clip-path="url(#clip0_3219_16475)">
<path d="M137.132 163.75C137.132 163.75 123.23 172.519 130.784 185.823C138.338 199.126 190.636 195.49 163.73 163.75C141.548 137.533 137.132 163.75 137.132 163.75Z" fill="#8F8F9F"/>
<path d="M188.061 129.897C188.061 129.897 182.012 137.152 183.218 144.407C184.959 154.845 169.017 168.593 152.693 164.058C136.37 159.524 153.899 128.99 153.899 128.99L188.061 129.897Z" fill="#8F8F9F"/>
<path d="M111.74 129.897C111.74 129.897 117.789 137.152 116.573 144.407C114.869 154.845 130.784 168.593 147.107 164.058C163.431 159.524 145.901 128.99 145.901 128.99L111.74 129.897Z" fill="#8F8F9F"/>
<path d="M153.265 152.732C160.795 152.971 168.268 151.358 175.029 148.034C178.277 146.32 181.074 143.862 183.191 140.861C183.871 134.967 188.079 129.897 188.079 129.897L153.918 128.99C153.918 128.99 146.481 141.94 145.81 152.224C148.285 152.522 150.773 152.692 153.265 152.732Z" fill="#DDDDE8"/>
<path d="M116.746 143.137C128.005 149.136 140.511 152.421 153.265 152.732H154.072C153.609 142.376 145.91 129 145.91 129L111.74 129.897C111.74 129.897 117.181 136.327 116.746 143.137Z" fill="#DDDDE8"/>
<path d="M168.182 178.876C160.492 174.687 162.587 154.391 162.587 154.391L151.07 155.117V154.373L149.828 154.772L148.594 154.4V155.117L137.132 154.4C137.132 154.4 139.227 174.687 131.536 178.885C123.846 183.084 76.5812 185.179 81.4691 232.036H218.25C223.147 185.17 175.882 183.075 168.182 178.876Z" fill="#DDDDE8"/>
<path d="M135.472 173.644C144.674 172.271 153.869 170.857 163.059 169.4C162.289 164.438 162.13 159.401 162.587 154.4L151.07 155.117V154.373L149.828 154.772L148.594 154.4V155.117L137.132 154.4C137.132 154.4 138.302 166.189 135.472 173.644Z" fill="#F3F4F8"/>
<path d="M183.826 182.486C177.097 188.589 167.158 192.815 155.813 193.903L149.71 215.876L146.472 194.112C134.184 193.395 123.357 189.024 116.174 182.513C100.205 187.609 76.8714 198.7 80.3446 232.018H219.655C223.138 198.7 199.804 187.609 183.826 182.486Z" fill="#7D7D82"/>
<path d="M147.307 199.68L146.472 194.111C134.184 193.395 123.357 189.024 116.174 182.513C113.295 183.428 110.467 184.5 107.704 185.723C113.363 193.395 128.789 199.063 147.307 199.68Z" fill="#F6F7F8"/>
<path d="M193.239 186.122C190.182 184.712 187.038 183.5 183.826 182.495C177.097 188.598 167.158 192.824 155.813 193.912L154.217 199.68C172.281 199.027 187.362 193.576 193.239 186.122Z" fill="#F6F7F8"/>
<path d="M148.322 221.217C148.322 221.72 148.471 222.211 148.75 222.628C149.029 223.046 149.426 223.371 149.89 223.563C150.354 223.756 150.864 223.806 151.357 223.708C151.849 223.61 152.302 223.368 152.657 223.013C153.012 222.658 153.254 222.205 153.352 221.713C153.45 221.22 153.4 220.71 153.207 220.246C153.015 219.782 152.69 219.385 152.272 219.106C151.855 218.827 151.364 218.678 150.862 218.678C150.188 218.678 149.542 218.946 149.066 219.422C148.59 219.898 148.322 220.544 148.322 221.217Z" fill="#F6F7F8"/>
<path d="M127.32 124.719C125.052 117.682 119.684 119.278 119.158 119.477C118.632 119.677 113.091 120.384 114.043 127.694C114.995 135.003 119.303 139.056 123.311 137.887C127.438 137.225 129.596 131.783 127.32 124.719Z" fill="#F3F4F8"/>
<path d="M172.572 124.719C174.839 117.682 180.198 119.278 180.733 119.477C181.268 119.677 186.809 120.384 185.848 127.694C184.887 135.003 180.579 139.056 176.571 137.887C172.445 137.225 170.286 131.783 172.572 124.719Z" fill="#F3F4F8"/>
<path d="M121.815 114.064C124.626 83.2306 148.059 84.9627 150.272 85.1984C152.476 84.9627 175.909 83.2396 178.72 114.064C181.568 145.069 167.738 165.319 150.272 164.185C132.806 165.319 118.995 145.069 121.815 114.064Z" fill="#F6F7F8"/>
<path d="M120.808 119.922C120.808 119.922 119.294 160.431 143.18 164.965C167.067 169.5 181.867 149.549 179.754 117.809L176.734 117.501C176.734 117.501 174.766 149.549 167.511 149.848C160.257 150.147 170.985 139.873 157.083 139.265C143.18 138.658 136.297 134.033 135.164 145.767C134.411 153.63 124.771 140.172 123.529 119.314C122.287 98.4567 120.808 119.922 120.808 119.922Z" fill="#DDDDE8"/>
<path d="M154.308 117.682C154.698 119.097 154.997 120.52 155.269 121.944C155.541 123.368 155.768 124.81 155.967 126.243C156.076 126.959 156.148 127.676 156.239 128.401C156.33 129.126 156.411 129.834 156.475 130.559C156.629 132.001 156.738 133.443 156.82 134.894V135.284L156.538 135.456C155.632 136.028 154.679 136.572 153.736 137.107C152.793 137.642 151.832 138.168 150.834 138.63C151.632 137.878 152.467 137.179 153.301 136.481C154.135 135.783 154.988 135.121 155.858 134.459L155.595 135.03C155.36 133.597 155.151 132.155 154.988 130.723C154.897 129.997 154.806 129.281 154.743 128.564C154.679 127.848 154.589 127.122 154.534 126.397C154.416 124.955 154.326 123.504 154.28 122.053C154.235 120.602 154.235 119.142 154.308 117.682Z" fill="#DDDDE8"/>
<path d="M172.372 115.397L171.701 115.025L170.948 114.608L169.996 114.109C169.642 113.955 169.28 113.746 168.872 113.592L168.273 113.32L167.638 113.093C167.221 112.903 166.731 112.839 166.341 112.685C165.899 112.591 165.451 112.528 164.999 112.495L164.337 112.431C164.12 112.431 163.902 112.431 163.675 112.431C163.241 112.461 162.81 112.528 162.388 112.631C161.961 112.703 161.571 112.912 161.172 113.012L160.873 113.102L160.601 113.247L160.066 113.492C159.755 113.631 159.452 113.789 159.159 113.964C158.887 114.136 158.633 114.272 158.425 114.39C157.998 114.617 157.726 114.735 157.726 114.735C157.726 114.735 157.835 114.481 158.071 114.045C158.189 113.828 158.334 113.565 158.524 113.275C158.731 112.941 158.981 112.636 159.268 112.368C159.574 112.005 159.924 111.682 160.311 111.406C160.722 111.107 161.159 110.846 161.617 110.627C161.889 110.518 162.161 110.427 162.442 110.327C162.733 110.215 163.038 110.144 163.349 110.119C163.648 110.119 163.956 110.028 164.256 110.001H165.163C165.779 110.049 166.388 110.171 166.976 110.364C167.257 110.463 167.529 110.59 167.792 110.699C168.057 110.802 168.309 110.932 168.545 111.089C168.781 111.234 169.017 111.37 169.234 111.515L169.833 111.996C170.189 112.291 170.522 112.612 170.83 112.957C171.292 113.467 171.691 114.03 172.018 114.635C172.159 114.878 172.277 115.133 172.372 115.397Z" fill="#8F8F9F"/>
<path d="M143.18 115.397L142.509 115.025L141.757 114.608L140.85 114.109C140.496 113.955 140.133 113.746 139.734 113.592L139.127 113.32L138.501 113.093C138.084 112.903 137.594 112.839 137.195 112.685C136.738 112.589 136.274 112.526 135.808 112.495L135.137 112.44C134.919 112.44 134.701 112.44 134.475 112.44C134.041 112.471 133.61 112.537 133.187 112.64C132.761 112.712 132.371 112.921 131.972 113.021L131.673 113.111L131.4 113.256L130.865 113.501C130.539 113.64 130.221 113.798 129.913 113.973C129.641 114.145 129.387 114.281 129.179 114.399C128.752 114.626 128.48 114.744 128.48 114.744C128.48 114.744 128.589 114.49 128.825 114.055C128.952 113.837 129.097 113.574 129.287 113.284C129.488 112.948 129.735 112.642 130.022 112.377C130.328 112.014 130.678 111.691 131.065 111.416C131.502 111.096 131.97 110.819 132.461 110.59C132.734 110.482 133.006 110.391 133.287 110.291C133.577 110.178 133.883 110.108 134.194 110.082C134.493 110.082 134.801 109.992 135.1 109.965H136.007C136.624 110.015 137.232 110.137 137.821 110.327C138.093 110.427 138.365 110.554 138.628 110.663C138.892 110.765 139.145 110.896 139.381 111.053C139.617 111.198 139.852 111.334 140.07 111.479L140.678 111.96C141.029 112.286 141.359 112.634 141.666 113.003C142.122 113.515 142.518 114.078 142.845 114.68C142.977 114.909 143.089 115.149 143.18 115.397Z" fill="#8F8F9F"/>
<path d="M142.255 126.56C142.255 126.56 142.192 126.315 142.047 125.889C141.853 125.336 141.617 124.8 141.34 124.284C140.965 123.579 140.446 122.961 139.816 122.47C139.476 122.203 139.088 122.003 138.673 121.881C138.475 121.771 138.261 121.695 138.039 121.654C137.819 121.604 137.593 121.585 137.368 121.6C137.15 121.6 136.878 121.6 136.706 121.6C136.467 121.624 136.23 121.666 135.998 121.726C135.601 121.834 135.226 122.012 134.892 122.252C134.564 122.505 134.282 122.812 134.058 123.159C133.839 123.465 133.654 123.794 133.504 124.139C133.287 124.699 133.126 125.279 133.024 125.871C132.951 126.306 132.924 126.56 132.924 126.56C132.871 126.33 132.831 126.097 132.806 125.862C132.747 125.228 132.78 124.59 132.906 123.966C132.988 123.534 133.131 123.116 133.332 122.724C133.552 122.266 133.86 121.857 134.239 121.518C134.665 121.144 135.17 120.871 135.717 120.72C135.967 120.648 136.221 120.593 136.479 120.557C136.781 120.538 137.084 120.538 137.386 120.557C137.663 120.56 137.939 120.59 138.211 120.647C138.491 120.683 138.766 120.757 139.027 120.865C139.291 120.951 139.541 121.073 139.771 121.228C140.006 121.362 140.226 121.523 140.424 121.708C141.111 122.343 141.621 123.147 141.902 124.039C142.099 124.625 142.218 125.235 142.255 125.853C142.273 126.088 142.273 126.325 142.255 126.56Z" fill="#8F8F9F"/>
<path d="M168.482 126.143C168.482 126.143 168.418 125.889 168.273 125.472C168.084 124.9 167.848 124.345 167.566 123.812C167.195 123.107 166.679 122.489 166.051 121.999C165.708 121.737 165.321 121.537 164.909 121.409C164.702 121.33 164.485 121.278 164.265 121.255C164.043 121.214 163.819 121.196 163.594 121.201C163.373 121.186 163.152 121.186 162.932 121.201C162.689 121.22 162.45 121.263 162.215 121.328C161.818 121.43 161.443 121.605 161.109 121.844C160.783 122.099 160.502 122.406 160.275 122.751C160.071 123.074 159.895 123.414 159.749 123.767C159.533 124.324 159.374 124.901 159.277 125.49C159.232 125.721 159.198 125.954 159.177 126.188C159.119 125.956 159.08 125.719 159.059 125.481C158.992 124.848 159.022 124.209 159.15 123.586C159.24 123.155 159.384 122.738 159.576 122.343C159.797 121.888 160.105 121.482 160.483 121.146C160.911 120.767 161.42 120.491 161.97 120.339C162.22 120.268 162.475 120.216 162.732 120.185C163.016 120.159 163.301 120.159 163.585 120.185C163.866 120.179 164.146 120.209 164.419 120.276C164.697 120.312 164.968 120.385 165.226 120.493C165.493 120.574 165.746 120.693 165.979 120.847C166.211 120.986 166.43 121.147 166.632 121.328C167.319 121.962 167.829 122.766 168.11 123.658C168.305 124.245 168.424 124.855 168.464 125.472C168.483 125.695 168.489 125.919 168.482 126.143Z" fill="#8F8F9F"/>
<path d="M162.215 144.171C156.638 149.612 147.189 149.295 140.034 144.461L162.215 144.171Z" fill="white"/>
<path d="M150.735 89.6965C150.735 89.6965 133.804 86.6676 131.083 97.2505C128.362 107.834 132.298 122.035 119.902 119.922C119.902 119.922 110.915 121.736 116.655 135.946C116.655 135.946 99.6515 119.623 109.627 107.834C117.716 98.2118 114.46 77.2998 134.411 73.9716C154.362 70.6435 150.735 85.7607 150.735 89.6965Z" fill="#76413B"/>
<path d="M150.735 89.6965C150.735 89.6965 133.804 86.6676 131.083 97.2505C128.362 107.834 132.298 122.035 119.902 119.922C119.902 119.922 110.915 121.736 116.655 135.946C116.655 135.946 99.6515 119.623 109.627 107.834C117.716 98.2118 114.46 77.2998 134.411 73.9716C154.362 70.6435 150.735 85.7607 150.735 89.6965Z" fill="#DDDDE8"/>
<path d="M149.148 89.6965C149.148 89.6965 166.069 86.6676 168.79 97.2505C171.511 107.834 167.584 122.035 179.981 119.922C179.981 119.922 188.967 121.736 183.218 135.946C183.218 135.946 200.231 119.623 190.255 107.834C182.094 98.2118 185.422 77.2998 165.471 73.9716C145.52 70.6435 149.148 85.7607 149.148 89.6965Z" fill="#DDDDE8"/>
</g>
<g filter="url(#filter0_d_3219_16475)">
<rect x="113" y="72.5" width="300" height="330" rx="6" fill="#291A7A"/>
<rect x="143" y="102.5" width="240" height="180" rx="6" fill="white"/>
<path d="M199.366 318.5H201.598V306.134H199.798L196.324 308.492L197.242 310.076L199.366 308.726V318.5ZM208.646 318.716C211.31 318.716 213.47 317.42 213.47 315.206C213.47 313.748 212.408 312.668 210.95 312.11C212.192 311.606 213.146 310.688 213.146 309.248C213.146 307.16 211.04 305.918 208.646 305.918C206.324 305.918 204.164 307.124 204.164 309.248C204.164 310.652 205.082 311.57 206.36 312.11C204.92 312.632 203.84 313.712 203.84 315.206C203.84 317.402 205.964 318.716 208.646 318.716ZM208.646 311.3C207.62 311.246 206.378 310.634 206.378 309.536C206.378 308.564 207.35 307.826 208.646 307.826C209.942 307.826 210.932 308.564 210.932 309.536C210.932 310.616 209.708 311.246 208.646 311.3ZM208.646 316.79C207.188 316.79 206.09 316.07 206.09 314.99C206.09 313.838 207.512 313.154 208.646 313.1C209.798 313.154 211.202 313.838 211.202 314.99C211.202 316.07 210.086 316.79 208.646 316.79ZM220.529 318.716C223.697 318.716 225.929 316.07 225.929 312.308C225.929 308.564 223.697 305.918 220.529 305.918C217.343 305.918 215.093 308.564 215.093 312.308C215.093 316.07 217.343 318.716 220.529 318.716ZM220.529 316.664C218.693 316.664 217.397 314.864 217.397 312.308C217.397 309.752 218.693 307.97 220.529 307.97C222.347 307.97 223.643 309.752 223.643 312.308C223.643 314.864 222.347 316.664 220.529 316.664ZM229.37 318.716C230.126 318.716 230.756 318.068 230.756 317.276C230.756 316.538 230.126 315.89 229.37 315.89C228.542 315.89 227.93 316.538 227.93 317.276C227.93 318.068 228.542 318.716 229.37 318.716ZM232.634 318.5H241.724V316.448H236.126L238.718 314.36C240.842 312.722 241.598 311.408 241.598 309.77C241.598 307.484 239.726 305.918 237.278 305.918C235.28 305.918 233.786 306.8 232.616 308.33L234.074 309.68C234.974 308.6 235.91 307.934 237.206 307.934C238.322 307.934 239.312 308.654 239.312 309.824C239.312 310.832 238.754 311.768 237.188 313.028L232.634 316.664V318.5ZM248.034 318.716C250.824 318.716 252.642 317.204 252.642 315.08C252.642 313.406 251.346 312.452 250.032 312.146C251.364 311.75 252.372 310.778 252.372 309.284C252.372 307.322 250.626 305.918 247.998 305.918C245.892 305.918 244.452 306.854 243.462 308.096L244.794 309.464C245.64 308.528 246.576 307.934 247.8 307.934C249.132 307.934 250.104 308.636 250.104 309.644C250.104 310.724 249.15 311.318 247.692 311.3H246.306V313.244L247.692 313.226C249.438 313.226 250.356 313.802 250.356 314.9C250.356 315.98 249.438 316.718 247.962 316.718C246.63 316.718 245.442 316.124 244.578 315.152L243.21 316.628C244.218 317.834 245.874 318.716 248.034 318.716ZM259.007 318.716C261.671 318.716 263.831 317.42 263.831 315.206C263.831 313.748 262.769 312.668 261.311 312.11C262.553 311.606 263.507 310.688 263.507 309.248C263.507 307.16 261.401 305.918 259.007 305.918C256.685 305.918 254.525 307.124 254.525 309.248C254.525 310.652 255.443 311.57 256.721 312.11C255.281 312.632 254.201 313.712 254.201 315.206C254.201 317.402 256.325 318.716 259.007 318.716ZM259.007 311.3C257.981 311.246 256.739 310.634 256.739 309.536C256.739 308.564 257.711 307.826 259.007 307.826C260.303 307.826 261.293 308.564 261.293 309.536C261.293 310.616 260.069 311.246 259.007 311.3ZM259.007 316.79C257.549 316.79 256.451 316.07 256.451 314.99C256.451 313.838 257.873 313.154 259.007 313.1C260.159 313.154 261.563 313.838 261.563 314.99C261.563 316.07 260.447 316.79 259.007 316.79ZM267.11 318.716C267.866 318.716 268.496 318.068 268.496 317.276C268.496 316.538 267.866 315.89 267.11 315.89C266.282 315.89 265.67 316.538 265.67 317.276C265.67 318.068 266.282 318.716 267.11 318.716ZM272.93 318.5H275.162V306.134H273.362L269.888 308.492L270.806 310.076L272.93 308.726V318.5ZM277.458 318.5H286.548V316.448H280.95L283.542 314.36C285.666 312.722 286.422 311.408 286.422 309.77C286.422 307.484 284.55 305.918 282.102 305.918C280.104 305.918 278.61 306.8 277.44 308.33L278.898 309.68C279.798 308.6 280.734 307.934 282.03 307.934C283.146 307.934 284.136 308.654 284.136 309.824C284.136 310.832 283.578 311.768 282.012 313.028L277.458 316.664V318.5ZM292.858 318.716C295.648 318.716 297.466 317.204 297.466 315.08C297.466 313.406 296.17 312.452 294.856 312.146C296.188 311.75 297.196 310.778 297.196 309.284C297.196 307.322 295.45 305.918 292.822 305.918C290.716 305.918 289.276 306.854 288.286 308.096L289.618 309.464C290.464 308.528 291.4 307.934 292.624 307.934C293.956 307.934 294.928 308.636 294.928 309.644C294.928 310.724 293.974 311.318 292.516 311.3H291.13V313.244L292.516 313.226C294.262 313.226 295.18 313.802 295.18 314.9C295.18 315.98 294.262 316.718 292.786 316.718C291.454 316.718 290.266 316.124 289.402 315.152L288.034 316.628C289.042 317.834 290.698 318.716 292.858 318.716ZM300.808 318.716C301.564 318.716 302.194 318.068 302.194 317.276C302.194 316.538 301.564 315.89 300.808 315.89C299.98 315.89 299.368 316.538 299.368 317.276C299.368 318.068 299.98 318.716 300.808 318.716ZM306.628 318.5H308.86V306.134H307.06L303.586 308.492L304.504 310.076L306.628 308.726V318.5ZM313.712 318.5H315.944V306.134H314.144L310.67 308.492L311.588 310.076L313.712 308.726V318.5ZM319.626 318.5H322.164L327.276 307.826V306.134H318.348V308.186H324.666L319.626 318.5Z" fill="white"/>
<g clip-path="url(#clip1_3219_16475)">
<path d="M203.566 283C200.254 281.561 199.081 279.062 199.191 275.471C199.401 269.424 199.23 263.369 199.252 257.314C199.309 242.654 209.113 230.955 223.559 228.439C225.9 228.032 228.337 228.177 230.73 228.063C230.615 228.427 230.469 228.779 230.292 229.117C228.055 232.711 225.807 236.297 223.546 239.876C222.431 241.626 222.54 242.864 224.019 244.351C224.636 244.968 225.27 245.567 225.865 246.202C227.387 247.834 227.479 248.853 226.25 250.677C225.283 252.121 224.303 253.552 223.288 254.961C222.273 256.369 222.295 257.852 223.021 259.401C225.938 265.652 228.844 271.912 231.741 278.183C232.462 279.749 233.053 281.386 233.674 282.996H219.587C219.587 279.408 219.631 275.816 219.587 272.229C219.547 269.818 218.305 268.501 216.345 268.584C214.731 268.654 213.72 270.059 213.72 272.229C213.72 275.816 213.72 279.405 213.72 282.996L203.566 283Z" fill="#27B392"/>
<path d="M297.926 228.094C311.51 227.919 324.285 238.795 326.035 252.279C326.529 256.094 326.385 259.996 326.446 263.859C326.508 267.723 326.293 271.607 326.508 275.466C326.704 279.054 325.475 281.565 322.133 283H314.949C314.949 279.354 314.949 275.708 314.949 272.063C314.949 270.037 313.781 268.637 312.088 268.589C310.316 268.541 309.064 269.963 309.06 272.063C309.06 275.708 309.06 279.354 309.06 283H294.973C296.198 280.113 297.374 277.199 298.656 274.338C300.975 269.19 303.33 264.056 305.722 258.938C306.439 257.406 306.116 256.081 305.223 254.808C304.331 253.534 303.294 252.183 302.358 250.87C301.106 249.094 301.233 247.807 302.764 246.237C303.456 245.541 304.129 244.828 304.851 244.163C306.094 243.012 306.12 241.744 305.289 240.374C304.304 238.751 303.289 237.146 302.314 235.514C300.835 233.042 299.383 230.548 297.926 228.094Z" fill="#27B392"/>
<path d="M297.926 228.094C299.383 230.566 300.835 233.042 302.301 235.501C303.276 237.132 304.291 238.738 305.276 240.361C306.107 241.731 306.081 242.986 304.838 244.15C304.116 244.815 303.443 245.528 302.751 246.224C301.22 247.781 301.093 249.081 302.344 250.857C303.281 252.169 304.278 253.482 305.21 254.794C306.142 256.107 306.426 257.393 305.709 258.924C303.317 264.043 300.962 269.176 298.643 274.324C297.361 277.186 296.184 280.099 294.959 282.987H285.772C285.772 270.897 285.772 258.809 285.772 246.722C285.732 246.246 285.653 245.773 285.536 245.309C285.579 244.321 285.628 243.327 285.671 242.339C285.715 241.857 285.763 241.372 285.807 240.891C286.201 236.481 285.466 232.316 283.156 228.483V227.949L297.926 228.094Z" fill="#34CCA9"/>
<path d="M233.688 283C233.049 281.399 232.476 279.763 231.754 278.188C228.887 271.92 225.986 265.665 223.052 259.423C222.326 257.874 222.278 256.422 223.319 254.983C224.36 253.543 225.314 252.143 226.281 250.699C227.51 248.875 227.418 247.856 225.896 246.224C225.301 245.589 224.666 244.99 224.049 244.373C222.571 242.886 222.461 241.665 223.577 239.898C225.84 236.319 228.089 232.733 230.323 229.139C230.499 228.801 230.646 228.449 230.761 228.085L242.573 227.976C242.604 228.094 242.634 228.216 242.661 228.339C242.389 228.798 242.074 229.236 241.847 229.717C240.007 233.675 239.366 238.086 240.005 242.404C240.04 243.279 240.071 244.189 240.106 245.082C240.053 245.62 239.948 246.163 239.948 246.701C239.948 258.811 239.948 270.915 239.948 283.013L233.688 283Z" fill="#34CCA9"/>
<path d="M239.931 283C239.931 270.89 239.931 258.786 239.931 246.687C239.931 246.149 240.036 245.607 240.088 245.069C240.806 248.184 241.322 251.36 242.276 254.392C244.402 261.055 247.906 266.721 254.583 269.801C255.978 270.177 257.365 270.61 258.778 270.907C260.121 271.192 261.499 271.345 262.86 271.529V283.013L239.931 283Z" fill="#464F5D"/>
<path d="M262.86 283V271.516L271.116 269.766C273.933 268.568 276.401 266.674 278.286 264.262C282.74 258.732 284.499 252.161 285.562 245.323C285.679 245.786 285.758 246.259 285.798 246.736C285.798 258.822 285.798 270.91 285.798 283H262.86Z" fill="#393F4A"/>
<path d="M309.051 283C309.051 279.354 309.051 275.708 309.051 272.062C309.051 269.962 310.307 268.562 312.079 268.589C313.772 268.637 314.936 270.037 314.94 272.062C314.94 275.708 314.94 279.354 314.94 283H309.051Z" fill="#2F2F82"/>
<path d="M213.72 283C213.72 279.412 213.72 275.823 213.72 272.233C213.72 270.046 214.739 268.659 216.345 268.589C218.305 268.506 219.547 269.822 219.587 272.233C219.648 275.821 219.587 279.412 219.587 283H213.72Z" fill="#2F2F82"/>
<path d="M292.348 192.923C292.247 196.808 292.737 200.719 291.398 204.521C290.42 207.344 288.851 209.926 286.796 212.094C285.536 213.433 284.346 214.838 283.125 216.211L282.823 216.806C282.551 216.952 282.303 217.14 282.088 217.362C280.146 220.114 278.151 222.831 276.322 225.674C273.959 229.301 270.818 231.209 266.378 230.955C263.608 230.798 260.817 230.955 258.039 230.916C254.849 230.868 252.246 229.603 250.404 226.956C248.563 224.309 246.747 221.558 244.866 218.902C244.261 218.163 243.603 217.47 242.897 216.828L242.599 216.229C240.889 214.278 239.099 212.37 237.485 210.362C234.598 206.823 233.32 202.706 233.364 198.156C233.364 196.406 233.364 194.682 233.364 192.945C233.149 189.008 232.996 185.031 232.686 181.084C232.498 178.665 232.069 176.272 231.749 173.848C231.965 173.876 232.179 173.92 232.388 173.979C246.025 179.085 260.143 179.584 274.436 178.311C281.109 177.674 287.671 176.174 293.958 173.848C293.994 174.555 293.969 175.263 293.883 175.966C292.702 181.548 292.028 187.205 292.348 192.923Z" fill="#FCD6AC"/>
<path d="M231.128 148.031C230.253 133.248 240.981 119.449 255.965 116.041C275.784 111.526 294.937 127.04 294.649 147.375C294.649 147.594 294.614 147.813 294.596 148.027C293.183 149.178 291.888 150.543 290.317 151.413C288.669 152.254 286.919 152.881 285.111 153.277C276.873 155.368 268.486 155.902 260.016 155.688C253.454 155.521 246.961 154.979 240.622 153.268C237.061 152.31 233.412 151.361 231.128 148.031Z" fill="#34CCA9"/>
<path d="M293.966 173.844C287.68 176.169 281.118 177.669 274.445 178.306C260.152 179.579 246.034 179.081 232.397 173.975C232.187 173.916 231.974 173.872 231.758 173.844L223.008 169.272C218.414 165.973 214.258 162.215 211.703 157.083C211.087 155.892 210.842 154.543 210.999 153.211C211.651 149.414 215.724 147.712 219.233 149.549C222.649 151.334 226.079 153.084 229.514 154.834C230.009 155.055 230.516 155.25 231.032 155.416C231.078 155.741 231.09 156.069 231.067 156.396C230.441 159.853 232.379 161.681 235.214 162.924C235.91 163.23 236.606 163.554 237.319 163.799C244.494 166.354 251.984 167.159 259.504 167.246C265.552 167.323 271.597 166.991 277.599 166.253C281.817 165.728 285.964 164.368 290.051 163.077C293.314 162.044 295.336 159.848 294.666 156.055C294.65 155.837 294.661 155.618 294.697 155.403C298.634 153.447 302.572 151.536 306.509 149.527C310.009 147.721 314.096 149.396 314.743 153.198C314.9 154.53 314.656 155.878 314.043 157.07C311.856 161.423 308.548 164.866 304.681 167.789L302.738 169.259C299.807 170.79 296.883 172.318 293.966 173.844Z" fill="#27B392"/>
<path d="M294.692 155.416C294.656 155.632 294.646 155.85 294.662 156.068C295.331 159.861 293.31 162.058 290.046 163.09C285.96 164.381 281.812 165.741 277.595 166.266C271.593 167.004 265.547 167.336 259.5 167.259C251.979 167.172 244.489 166.384 237.314 163.812C236.601 163.554 235.906 163.23 235.21 162.937C232.357 161.694 230.437 159.874 231.062 156.409C231.086 156.082 231.074 155.754 231.027 155.429C231.062 152.968 231.096 150.506 231.128 148.044C233.412 151.378 237.061 152.323 240.622 153.294C246.961 155.005 253.458 155.548 260.016 155.714C268.486 155.924 276.873 155.394 285.111 153.303C286.919 152.907 288.669 152.281 290.317 151.439C291.888 150.564 293.183 149.204 294.596 148.053C294.628 150.5 294.66 152.955 294.692 155.416Z" fill="#393F4A"/>
<path d="M242.897 216.824C243.603 217.466 244.261 218.159 244.866 218.898C246.747 221.553 248.536 224.283 250.404 226.952C252.273 229.621 254.849 230.863 258.039 230.911C260.817 230.955 263.608 230.793 266.378 230.951C270.818 231.204 273.959 229.297 276.322 225.67C278.155 222.848 280.146 220.131 282.088 217.358C282.304 217.134 282.553 216.947 282.828 216.802C282.828 219.567 282.828 222.332 282.858 225.114C282.91 225.957 283.005 226.797 283.143 227.63C283.143 227.735 283.143 227.844 283.173 227.954C283.173 228.133 283.173 228.308 283.173 228.488C281.778 230.675 280.548 233.003 278.947 235.019C275.832 238.913 271.838 241.464 266.754 242.085C265.756 242.208 264.798 242.663 263.823 242.96H261.867C261.412 242.726 260.938 242.533 260.449 242.383C259.294 242.133 258.087 242.059 256.949 241.735C249.888 239.714 245.448 234.862 242.621 228.308C242.595 228.186 242.564 228.063 242.534 227.945C242.503 227.827 242.556 227.726 242.569 227.613C242.706 227.053 242.801 226.484 242.853 225.911C242.897 222.896 242.875 219.86 242.897 216.824Z" fill="#F7C695"/>
<path d="M223.004 169.272L231.754 173.844C232.073 176.254 232.502 178.656 232.69 181.08C233.001 185.017 233.154 188.986 233.368 192.941C227.3 190.639 222.606 184.134 222.566 177.729C222.553 174.911 222.851 172.089 223.004 169.272Z" fill="#F8C695"/>
<path d="M293.966 173.844C296.883 172.315 299.8 170.791 302.716 169.272C302.756 173.113 303.386 177.064 302.716 180.774C301.644 186.566 297.781 190.556 292.361 192.941C292.041 187.205 292.715 181.566 293.905 175.961C293.987 175.259 294.007 174.55 293.966 173.844Z" fill="#F8C695"/>
<path d="M242.897 216.824C242.897 219.86 242.897 222.896 242.866 225.932C242.815 226.506 242.719 227.075 242.582 227.634C242.582 223.843 242.582 220.039 242.582 216.224L242.897 216.824Z" fill="#D8B38D"/>
<path d="M283.125 227.639C282.987 226.806 282.892 225.966 282.841 225.123C282.801 222.354 282.814 219.589 282.81 216.811C282.906 216.609 283.007 216.412 283.107 216.216C283.119 220.025 283.125 223.832 283.125 227.639Z" fill="#D5B28F"/>
<path d="M263.831 242.973C264.807 242.671 265.765 242.216 266.762 242.098C271.846 241.477 275.841 238.926 278.956 235.032C280.57 233.016 281.786 230.688 283.182 228.501C285.492 232.333 286.244 236.498 285.833 240.908C285.789 241.389 285.741 241.875 285.697 242.356C285.398 242.695 285.144 243.072 284.941 243.476C283.593 247.361 281.003 250.209 277.573 252.336C275.867 253.39 274.388 253.022 273.198 251.36C272.669 250.607 272.047 249.921 271.47 249.203C269.462 246.542 266.842 244.405 263.831 242.973Z" fill="#EAEEEF"/>
<path d="M271.483 249.199C272.061 249.916 272.682 250.603 273.211 251.356C274.388 253.018 275.867 253.386 277.586 252.331C281.029 250.205 283.606 247.357 284.954 243.472C285.157 243.068 285.411 242.691 285.711 242.352C285.667 243.341 285.619 244.334 285.575 245.323C284.512 252.161 282.753 258.732 278.299 264.262C276.414 266.674 273.947 268.568 271.129 269.766C269.775 265.216 268.421 260.666 267.064 256.116C269.563 254.479 271.142 252.235 271.483 249.199Z" fill="#BBC1C4"/>
<path d="M242.634 228.33C245.461 234.892 249.901 239.736 256.963 241.757C258.096 242.081 259.303 242.155 260.463 242.404C260.951 242.554 261.426 242.748 261.88 242.982C258.975 244.416 256.4 246.439 254.32 248.923C253.655 249.829 253.034 250.774 252.312 251.636C251.503 252.598 250.422 253.701 249.166 252.948C245.592 250.817 242.486 248.171 241.051 244.027C240.761 243.435 240.401 242.88 239.979 242.374C239.34 238.055 239.98 233.645 241.821 229.686C242.048 229.236 242.363 228.798 242.634 228.33Z" fill="#FDFDFD"/>
<path d="M239.979 242.361C240.401 242.867 240.761 243.422 241.051 244.014C242.486 248.157 245.592 250.804 249.166 252.935C250.422 253.683 251.503 252.581 252.312 251.622C253.034 250.747 253.655 249.816 254.32 248.91C254.32 251.399 255.423 253.355 257.199 255L258.708 256.4C257.334 260.857 255.959 265.315 254.583 269.774C247.906 266.712 244.402 261.024 242.276 254.366C241.313 251.334 240.797 248.157 240.088 245.042C240.044 244.163 240.014 243.271 239.979 242.361Z" fill="#E9ECED"/>
<path d="M254.582 269.787C255.956 265.328 257.331 260.87 258.708 256.413C258.909 256.347 259.146 256.172 259.307 256.229C261.906 257.201 264.479 256.82 267.051 256.116C268.407 260.666 269.762 265.216 271.116 269.766L262.86 271.516C261.499 271.314 260.121 271.179 258.778 270.894C257.365 270.597 256 270.164 254.582 269.787Z" fill="#2F2F82"/>
<path d="M267.051 256.116C264.479 256.82 261.906 257.201 259.307 256.229C259.154 256.172 258.909 256.347 258.708 256.413L257.199 255.013C255.422 253.368 254.311 251.412 254.32 248.923C256.399 246.44 258.972 244.417 261.876 242.982H263.831C266.846 244.41 269.471 246.546 271.483 249.207C271.142 252.235 269.562 254.479 267.051 256.116Z" fill="#434396"/>
</g>
</g>
<defs>
<filter id="filter0_d_3219_16475" x="33" y="0.5" width="460" height="490" filterUnits="userSpaceOnUse" color-interpolation-filters="sRGB">
<feFlood flood-opacity="0" result="BackgroundImageFix"/>
<feColorMatrix in="SourceAlpha" type="matrix" values="0 0 0 0 0 0 0 0 0 0 0 0 0 0 0 0 0 0 127 0" result="hardAlpha"/>
<feOffset dy="8"/>
<feGaussianBlur stdDeviation="40"/>
<feColorMatrix type="matrix" values="0 0 0 0 0.109804 0 0 0 0 0.109804 0 0 0 0 0.12549 0 0 0 0.12 0"/>
<feBlend mode="normal" in2="BackgroundImageFix" result="effect1_dropShadow_3219_16475"/>
<feBlend mode="normal" in="SourceGraphic" in2="effect1_dropShadow_3219_16475" result="shape"/>
</filter>
<linearGradient id="paint0_linear_3219_16475" x1="150" y1="22.5" x2="150" y2="352.5" gradientUnits="userSpaceOnUse">
<stop offset="0.208333" stop-color="#F3F4F8"/>
<stop offset="1" stop-color="#F3F4F8" stop-opacity="0.21"/>
</linearGradient>
<clipPath id="clip0_3219_16475">
<rect width="140" height="158.527" fill="white" transform="translate(80 73.5)"/>
</clipPath>
<clipPath id="clip1_3219_16475">
<rect width="168" height="168" fill="white" transform="translate(179 115)"/>
</clipPath>
</defs>
</svg>
