<svg width="493" height="491" viewBox="0 0 493 491" fill="none" xmlns="http://www.w3.org/2000/svg">
<rect y="22.5" width="300" height="330" rx="6" fill="url(#paint0_linear_3213_14064)"/>
<rect x="30" y="52.5" width="240" height="180" rx="6" fill="white"/>
<path d="M93.0767 254.72C93.4183 253.899 94.5817 253.899 94.9233 254.72L97.4685 260.839C97.6125 261.185 97.9381 261.422 98.3119 261.452L104.918 261.982C105.805 262.053 106.164 263.159 105.489 263.738L100.456 268.049C100.171 268.293 100.046 268.676 100.133 269.041L101.671 275.488C101.878 276.353 100.936 277.037 100.177 276.573L94.5213 273.118C94.2012 272.923 93.7988 272.923 93.4787 273.118L87.8228 276.573C87.0637 277.037 86.1225 276.353 86.3289 275.488L87.8666 269.041C87.9536 268.676 87.8293 268.293 87.5445 268.049L82.5112 263.738C81.8356 263.159 82.1952 262.053 83.0818 261.982L89.6881 261.452C90.0619 261.422 90.3875 261.185 90.5315 260.839L93.0767 254.72Z" fill="#DDDDE8"/>
<path d="M121.077 254.72C121.418 253.899 122.582 253.899 122.923 254.72L125.468 260.839C125.612 261.185 125.938 261.422 126.312 261.452L132.918 261.982C133.805 262.053 134.164 263.159 133.489 263.738L128.456 268.049C128.171 268.293 128.046 268.676 128.133 269.041L129.671 275.488C129.878 276.353 128.936 277.037 128.177 276.573L122.521 273.118C122.201 272.923 121.799 272.923 121.479 273.118L115.823 276.573C115.064 277.037 114.122 276.353 114.329 275.488L115.867 269.041C115.954 268.676 115.829 268.293 115.544 268.049L110.511 263.738C109.836 263.159 110.195 262.053 111.082 261.982L117.688 261.452C118.062 261.422 118.388 261.185 118.532 260.839L121.077 254.72Z" fill="#DDDDE8"/>
<path d="M149.077 254.72C149.418 253.899 150.582 253.899 150.923 254.72L153.468 260.839C153.612 261.185 153.938 261.422 154.312 261.452L160.918 261.982C161.805 262.053 162.164 263.159 161.489 263.738L156.456 268.049C156.171 268.293 156.046 268.676 156.133 269.041L157.671 275.488C157.878 276.353 156.936 277.037 156.177 276.573L150.521 273.118C150.201 272.923 149.799 272.923 149.479 273.118L143.823 276.573C143.064 277.037 142.122 276.353 142.329 275.488L143.867 269.041C143.954 268.676 143.829 268.293 143.544 268.049L138.511 263.738C137.836 263.159 138.195 262.053 139.082 261.982L145.688 261.452C146.062 261.422 146.388 261.185 146.532 260.839L149.077 254.72Z" fill="#DDDDE8"/>
<path d="M177.538 254.912C177.709 254.501 178.291 254.501 178.462 254.912L181.007 261.031C181.223 261.551 181.711 261.905 182.272 261.95L188.878 262.48C189.322 262.516 189.501 263.069 189.164 263.358L184.13 267.67C183.703 268.036 183.517 268.61 183.647 269.157L185.185 275.604C185.288 276.036 184.817 276.378 184.438 276.146L178.782 272.692C178.302 272.398 177.698 272.398 177.218 272.692L171.562 276.146C171.183 276.378 170.712 276.036 170.815 275.604L172.353 269.157C172.483 268.61 172.297 268.036 171.87 267.67L166.836 263.358C166.499 263.069 166.678 262.516 167.122 262.48L173.728 261.95C174.289 261.905 174.777 261.551 174.993 261.031L177.538 254.912Z" stroke="#DDDDE8"/>
<path d="M205.538 254.912C205.709 254.501 206.291 254.501 206.462 254.912L209.007 261.031C209.223 261.551 209.711 261.905 210.272 261.95L216.878 262.48C217.322 262.516 217.501 263.069 217.164 263.358L212.13 267.67C211.703 268.036 211.517 268.61 211.647 269.157L213.185 275.604C213.288 276.036 212.817 276.378 212.438 276.146L206.782 272.692C206.302 272.398 205.698 272.398 205.218 272.692L199.562 276.146C199.183 276.378 198.712 276.036 198.815 275.604L200.353 269.157C200.483 268.61 200.297 268.036 199.87 267.67L194.836 263.358C194.499 263.069 194.678 262.516 195.122 262.48L201.728 261.95C202.289 261.905 202.777 261.551 202.993 261.031L205.538 254.912Z" stroke="#DDDDE8"/>
<g opacity="0.5" clip-path="url(#clip0_3213_14064)">
<path d="M137.132 163.75C137.132 163.75 123.23 172.519 130.784 185.823C138.338 199.126 190.636 195.49 163.73 163.75C141.548 137.533 137.132 163.75 137.132 163.75Z" fill="#8F8F9F"/>
<path d="M188.061 129.897C188.061 129.897 182.012 137.152 183.218 144.407C184.959 154.845 169.017 168.593 152.693 164.058C136.37 159.524 153.899 128.99 153.899 128.99L188.061 129.897Z" fill="#8F8F9F"/>
<path d="M111.74 129.897C111.74 129.897 117.789 137.152 116.573 144.407C114.869 154.845 130.784 168.593 147.107 164.058C163.431 159.524 145.901 128.99 145.901 128.99L111.74 129.897Z" fill="#8F8F9F"/>
<path d="M153.265 152.732C160.795 152.971 168.268 151.358 175.029 148.034C178.277 146.32 181.074 143.862 183.191 140.861C183.871 134.967 188.079 129.897 188.079 129.897L153.918 128.99C153.918 128.99 146.481 141.94 145.81 152.224C148.285 152.522 150.773 152.692 153.265 152.732Z" fill="#DDDDE8"/>
<path d="M116.746 143.137C128.005 149.136 140.511 152.421 153.265 152.732H154.072C153.609 142.376 145.91 129 145.91 129L111.74 129.897C111.74 129.897 117.181 136.327 116.746 143.137Z" fill="#DDDDE8"/>
<path d="M168.182 178.876C160.492 174.687 162.587 154.391 162.587 154.391L151.07 155.117V154.373L149.828 154.772L148.594 154.4V155.117L137.132 154.4C137.132 154.4 139.227 174.687 131.536 178.885C123.846 183.084 76.5812 185.179 81.4691 232.036H218.25C223.147 185.17 175.882 183.075 168.182 178.876Z" fill="#DDDDE8"/>
<path d="M135.472 173.644C144.674 172.271 153.869 170.857 163.059 169.4C162.289 164.438 162.13 159.401 162.587 154.4L151.07 155.117V154.373L149.828 154.772L148.594 154.4V155.117L137.132 154.4C137.132 154.4 138.302 166.189 135.472 173.644Z" fill="#F3F4F8"/>
<path d="M183.826 182.486C177.097 188.589 167.158 192.815 155.813 193.903L149.71 215.876L146.472 194.112C134.184 193.395 123.357 189.024 116.174 182.513C100.205 187.609 76.8714 198.7 80.3446 232.018H219.655C223.138 198.7 199.804 187.609 183.826 182.486Z" fill="#7D7D82"/>
<path d="M147.307 199.68L146.472 194.111C134.184 193.395 123.357 189.024 116.174 182.513C113.295 183.428 110.467 184.5 107.704 185.723C113.363 193.395 128.789 199.063 147.307 199.68Z" fill="#F6F7F8"/>
<path d="M193.239 186.122C190.182 184.712 187.038 183.5 183.826 182.495C177.097 188.598 167.158 192.824 155.813 193.912L154.217 199.68C172.281 199.027 187.362 193.576 193.239 186.122Z" fill="#F6F7F8"/>
<path d="M148.322 221.217C148.322 221.72 148.471 222.211 148.75 222.628C149.029 223.046 149.426 223.371 149.89 223.563C150.354 223.756 150.864 223.806 151.357 223.708C151.849 223.61 152.302 223.368 152.657 223.013C153.012 222.658 153.254 222.205 153.352 221.713C153.45 221.22 153.4 220.71 153.207 220.246C153.015 219.782 152.69 219.385 152.272 219.106C151.855 218.827 151.364 218.678 150.862 218.678C150.188 218.678 149.542 218.946 149.066 219.422C148.59 219.898 148.322 220.544 148.322 221.217Z" fill="#F6F7F8"/>
<path d="M127.32 124.719C125.052 117.682 119.684 119.278 119.158 119.477C118.632 119.677 113.091 120.384 114.043 127.694C114.995 135.003 119.303 139.056 123.311 137.887C127.438 137.225 129.596 131.783 127.32 124.719Z" fill="#F3F4F8"/>
<path d="M172.572 124.719C174.839 117.682 180.198 119.278 180.733 119.477C181.268 119.677 186.809 120.384 185.848 127.694C184.887 135.003 180.579 139.056 176.571 137.887C172.445 137.225 170.286 131.783 172.572 124.719Z" fill="#F3F4F8"/>
<path d="M121.815 114.064C124.626 83.2306 148.059 84.9627 150.272 85.1984C152.476 84.9627 175.909 83.2396 178.72 114.064C181.568 145.069 167.738 165.319 150.272 164.185C132.806 165.319 118.995 145.069 121.815 114.064Z" fill="#F6F7F8"/>
<path d="M120.808 119.922C120.808 119.922 119.294 160.431 143.18 164.965C167.067 169.5 181.867 149.549 179.754 117.809L176.734 117.501C176.734 117.501 174.766 149.549 167.511 149.848C160.257 150.147 170.985 139.873 157.083 139.265C143.18 138.658 136.297 134.033 135.164 145.767C134.411 153.63 124.771 140.172 123.529 119.314C122.287 98.4567 120.808 119.922 120.808 119.922Z" fill="#DDDDE8"/>
<path d="M154.308 117.682C154.698 119.097 154.997 120.52 155.269 121.944C155.541 123.368 155.768 124.81 155.967 126.243C156.076 126.959 156.148 127.676 156.239 128.401C156.33 129.126 156.411 129.834 156.475 130.559C156.629 132.001 156.738 133.443 156.82 134.894V135.284L156.538 135.456C155.632 136.028 154.679 136.572 153.736 137.107C152.793 137.642 151.832 138.168 150.834 138.63C151.632 137.878 152.467 137.179 153.301 136.481C154.135 135.783 154.988 135.121 155.858 134.459L155.595 135.03C155.36 133.597 155.151 132.155 154.988 130.723C154.897 129.997 154.806 129.281 154.743 128.564C154.679 127.848 154.589 127.122 154.534 126.397C154.416 124.955 154.326 123.504 154.28 122.053C154.235 120.602 154.235 119.142 154.308 117.682Z" fill="#DDDDE8"/>
<path d="M172.372 115.397L171.701 115.025L170.948 114.608L169.996 114.109C169.642 113.955 169.28 113.746 168.872 113.592L168.273 113.32L167.638 113.093C167.221 112.903 166.731 112.839 166.341 112.685C165.899 112.591 165.451 112.528 164.999 112.495L164.337 112.431C164.12 112.431 163.902 112.431 163.675 112.431C163.241 112.461 162.81 112.528 162.388 112.631C161.961 112.703 161.571 112.912 161.172 113.012L160.873 113.102L160.601 113.247L160.066 113.492C159.755 113.631 159.452 113.789 159.159 113.964C158.887 114.136 158.633 114.272 158.425 114.39C157.998 114.617 157.726 114.735 157.726 114.735C157.726 114.735 157.835 114.481 158.071 114.045C158.189 113.828 158.334 113.565 158.524 113.275C158.731 112.941 158.981 112.636 159.268 112.368C159.574 112.005 159.924 111.682 160.311 111.406C160.722 111.107 161.159 110.846 161.617 110.627C161.889 110.518 162.161 110.427 162.442 110.327C162.733 110.215 163.038 110.144 163.349 110.119C163.648 110.119 163.956 110.028 164.256 110.001H165.163C165.779 110.049 166.388 110.171 166.976 110.364C167.257 110.463 167.529 110.59 167.792 110.699C168.057 110.802 168.309 110.932 168.545 111.089C168.781 111.234 169.017 111.37 169.234 111.515L169.833 111.996C170.189 112.291 170.522 112.612 170.83 112.957C171.292 113.467 171.691 114.03 172.018 114.635C172.159 114.878 172.277 115.133 172.372 115.397Z" fill="#8F8F9F"/>
<path d="M143.18 115.397L142.509 115.025L141.757 114.608L140.85 114.109C140.496 113.955 140.133 113.746 139.734 113.592L139.127 113.32L138.501 113.093C138.084 112.903 137.594 112.839 137.195 112.685C136.738 112.589 136.274 112.526 135.808 112.495L135.137 112.44C134.919 112.44 134.701 112.44 134.475 112.44C134.041 112.471 133.61 112.537 133.187 112.64C132.761 112.712 132.371 112.921 131.972 113.021L131.673 113.111L131.4 113.256L130.865 113.501C130.539 113.64 130.221 113.798 129.913 113.973C129.641 114.145 129.387 114.281 129.179 114.399C128.752 114.626 128.48 114.744 128.48 114.744C128.48 114.744 128.589 114.49 128.825 114.055C128.952 113.837 129.097 113.574 129.287 113.284C129.488 112.948 129.735 112.642 130.022 112.377C130.328 112.014 130.678 111.691 131.065 111.416C131.502 111.096 131.97 110.819 132.461 110.59C132.734 110.482 133.006 110.391 133.287 110.291C133.577 110.178 133.883 110.108 134.194 110.082C134.493 110.082 134.801 109.992 135.1 109.965H136.007C136.624 110.015 137.232 110.137 137.821 110.327C138.093 110.427 138.365 110.554 138.628 110.663C138.892 110.765 139.145 110.896 139.381 111.053C139.617 111.198 139.852 111.334 140.07 111.479L140.678 111.96C141.029 112.286 141.359 112.634 141.666 113.003C142.122 113.515 142.518 114.078 142.845 114.68C142.977 114.909 143.089 115.149 143.18 115.397Z" fill="#8F8F9F"/>
<path d="M142.255 126.56C142.255 126.56 142.192 126.315 142.047 125.889C141.853 125.336 141.617 124.8 141.34 124.284C140.965 123.579 140.446 122.961 139.816 122.47C139.476 122.203 139.088 122.003 138.673 121.881C138.475 121.771 138.261 121.695 138.039 121.654C137.819 121.604 137.593 121.585 137.368 121.6C137.15 121.6 136.878 121.6 136.706 121.6C136.467 121.624 136.23 121.666 135.998 121.726C135.601 121.834 135.226 122.012 134.892 122.252C134.564 122.505 134.282 122.812 134.058 123.159C133.839 123.465 133.654 123.794 133.504 124.139C133.287 124.699 133.126 125.279 133.024 125.871C132.951 126.306 132.924 126.56 132.924 126.56C132.871 126.33 132.831 126.097 132.806 125.862C132.747 125.228 132.78 124.59 132.906 123.966C132.988 123.534 133.131 123.116 133.332 122.724C133.552 122.266 133.86 121.857 134.239 121.518C134.665 121.144 135.17 120.871 135.717 120.72C135.967 120.648 136.221 120.593 136.479 120.557C136.781 120.538 137.084 120.538 137.386 120.557C137.663 120.56 137.939 120.59 138.211 120.647C138.491 120.683 138.766 120.757 139.027 120.865C139.291 120.951 139.541 121.073 139.771 121.228C140.006 121.362 140.226 121.523 140.424 121.708C141.111 122.343 141.621 123.147 141.902 124.039C142.099 124.625 142.218 125.235 142.255 125.853C142.273 126.088 142.273 126.325 142.255 126.56Z" fill="#8F8F9F"/>
<path d="M168.482 126.143C168.482 126.143 168.418 125.889 168.273 125.472C168.084 124.9 167.848 124.345 167.566 123.812C167.195 123.107 166.679 122.489 166.051 121.999C165.708 121.737 165.321 121.537 164.909 121.409C164.702 121.33 164.485 121.278 164.265 121.255C164.043 121.214 163.819 121.196 163.594 121.201C163.373 121.186 163.152 121.186 162.932 121.201C162.689 121.22 162.45 121.263 162.215 121.328C161.818 121.43 161.443 121.605 161.109 121.844C160.783 122.099 160.502 122.406 160.275 122.751C160.071 123.074 159.895 123.414 159.749 123.767C159.533 124.324 159.374 124.901 159.277 125.49C159.232 125.721 159.198 125.954 159.177 126.188C159.119 125.956 159.08 125.719 159.059 125.481C158.992 124.848 159.022 124.209 159.15 123.586C159.24 123.155 159.384 122.738 159.576 122.343C159.797 121.888 160.105 121.482 160.483 121.146C160.911 120.767 161.42 120.491 161.97 120.339C162.22 120.268 162.475 120.216 162.732 120.185C163.016 120.159 163.301 120.159 163.585 120.185C163.866 120.179 164.146 120.209 164.419 120.276C164.697 120.312 164.968 120.385 165.226 120.493C165.493 120.574 165.746 120.693 165.979 120.847C166.211 120.986 166.43 121.147 166.632 121.328C167.319 121.962 167.829 122.766 168.11 123.658C168.305 124.245 168.424 124.855 168.464 125.472C168.483 125.695 168.489 125.919 168.482 126.143Z" fill="#8F8F9F"/>
<path d="M162.215 144.171C156.638 149.612 147.189 149.295 140.034 144.461L162.215 144.171Z" fill="white"/>
<path d="M150.735 89.6965C150.735 89.6965 133.804 86.6676 131.083 97.2505C128.362 107.834 132.298 122.035 119.902 119.922C119.902 119.922 110.915 121.736 116.655 135.946C116.655 135.946 99.6515 119.623 109.627 107.834C117.716 98.2118 114.46 77.2998 134.411 73.9716C154.362 70.6435 150.735 85.7607 150.735 89.6965Z" fill="#76413B"/>
<path d="M150.735 89.6965C150.735 89.6965 133.804 86.6676 131.083 97.2505C128.362 107.834 132.298 122.035 119.902 119.922C119.902 119.922 110.915 121.736 116.655 135.946C116.655 135.946 99.6515 119.623 109.627 107.834C117.716 98.2118 114.46 77.2998 134.411 73.9716C154.362 70.6435 150.735 85.7607 150.735 89.6965Z" fill="#DDDDE8"/>
<path d="M149.148 89.6965C149.148 89.6965 166.069 86.6676 168.79 97.2505C171.511 107.834 167.584 122.035 179.981 119.922C179.981 119.922 188.967 121.736 183.218 135.946C183.218 135.946 200.231 119.623 190.255 107.834C182.094 98.2118 185.422 77.2998 165.471 73.9716C145.52 70.6435 149.148 85.7607 149.148 89.6965Z" fill="#DDDDE8"/>
</g>
<g filter="url(#filter0_d_3213_14064)">
<rect x="113" y="72.5" width="300" height="330" rx="6" fill="#291A7A"/>
<rect x="143" y="102.5" width="240" height="180" rx="6" fill="white"/>
<path d="M199.366 318.5H201.598V306.134H199.798L196.324 308.492L197.242 310.076L199.366 308.726V318.5ZM208.646 318.716C211.31 318.716 213.47 317.42 213.47 315.206C213.47 313.748 212.408 312.668 210.95 312.11C212.192 311.606 213.146 310.688 213.146 309.248C213.146 307.16 211.04 305.918 208.646 305.918C206.324 305.918 204.164 307.124 204.164 309.248C204.164 310.652 205.082 311.57 206.36 312.11C204.92 312.632 203.84 313.712 203.84 315.206C203.84 317.402 205.964 318.716 208.646 318.716ZM208.646 311.3C207.62 311.246 206.378 310.634 206.378 309.536C206.378 308.564 207.35 307.826 208.646 307.826C209.942 307.826 210.932 308.564 210.932 309.536C210.932 310.616 209.708 311.246 208.646 311.3ZM208.646 316.79C207.188 316.79 206.09 316.07 206.09 314.99C206.09 313.838 207.512 313.154 208.646 313.1C209.798 313.154 211.202 313.838 211.202 314.99C211.202 316.07 210.086 316.79 208.646 316.79ZM220.529 318.716C223.697 318.716 225.929 316.07 225.929 312.308C225.929 308.564 223.697 305.918 220.529 305.918C217.343 305.918 215.093 308.564 215.093 312.308C215.093 316.07 217.343 318.716 220.529 318.716ZM220.529 316.664C218.693 316.664 217.397 314.864 217.397 312.308C217.397 309.752 218.693 307.97 220.529 307.97C222.347 307.97 223.643 309.752 223.643 312.308C223.643 314.864 222.347 316.664 220.529 316.664ZM229.37 318.716C230.126 318.716 230.756 318.068 230.756 317.276C230.756 316.538 230.126 315.89 229.37 315.89C228.542 315.89 227.93 316.538 227.93 317.276C227.93 318.068 228.542 318.716 229.37 318.716ZM232.634 318.5H241.724V316.448H236.126L238.718 314.36C240.842 312.722 241.598 311.408 241.598 309.77C241.598 307.484 239.726 305.918 237.278 305.918C235.28 305.918 233.786 306.8 232.616 308.33L234.074 309.68C234.974 308.6 235.91 307.934 237.206 307.934C238.322 307.934 239.312 308.654 239.312 309.824C239.312 310.832 238.754 311.768 237.188 313.028L232.634 316.664V318.5ZM248.034 318.716C250.824 318.716 252.642 317.204 252.642 315.08C252.642 313.406 251.346 312.452 250.032 312.146C251.364 311.75 252.372 310.778 252.372 309.284C252.372 307.322 250.626 305.918 247.998 305.918C245.892 305.918 244.452 306.854 243.462 308.096L244.794 309.464C245.64 308.528 246.576 307.934 247.8 307.934C249.132 307.934 250.104 308.636 250.104 309.644C250.104 310.724 249.15 311.318 247.692 311.3H246.306V313.244L247.692 313.226C249.438 313.226 250.356 313.802 250.356 314.9C250.356 315.98 249.438 316.718 247.962 316.718C246.63 316.718 245.442 316.124 244.578 315.152L243.21 316.628C244.218 317.834 245.874 318.716 248.034 318.716ZM259.007 318.716C261.671 318.716 263.831 317.42 263.831 315.206C263.831 313.748 262.769 312.668 261.311 312.11C262.553 311.606 263.507 310.688 263.507 309.248C263.507 307.16 261.401 305.918 259.007 305.918C256.685 305.918 254.525 307.124 254.525 309.248C254.525 310.652 255.443 311.57 256.721 312.11C255.281 312.632 254.201 313.712 254.201 315.206C254.201 317.402 256.325 318.716 259.007 318.716ZM259.007 311.3C257.981 311.246 256.739 310.634 256.739 309.536C256.739 308.564 257.711 307.826 259.007 307.826C260.303 307.826 261.293 308.564 261.293 309.536C261.293 310.616 260.069 311.246 259.007 311.3ZM259.007 316.79C257.549 316.79 256.451 316.07 256.451 314.99C256.451 313.838 257.873 313.154 259.007 313.1C260.159 313.154 261.563 313.838 261.563 314.99C261.563 316.07 260.447 316.79 259.007 316.79ZM267.11 318.716C267.866 318.716 268.496 318.068 268.496 317.276C268.496 316.538 267.866 315.89 267.11 315.89C266.282 315.89 265.67 316.538 265.67 317.276C265.67 318.068 266.282 318.716 267.11 318.716ZM272.93 318.5H275.162V306.134H273.362L269.888 308.492L270.806 310.076L272.93 308.726V318.5ZM277.458 318.5H286.548V316.448H280.95L283.542 314.36C285.666 312.722 286.422 311.408 286.422 309.77C286.422 307.484 284.55 305.918 282.102 305.918C280.104 305.918 278.61 306.8 277.44 308.33L278.898 309.68C279.798 308.6 280.734 307.934 282.03 307.934C283.146 307.934 284.136 308.654 284.136 309.824C284.136 310.832 283.578 311.768 282.012 313.028L277.458 316.664V318.5ZM292.858 318.716C295.648 318.716 297.466 317.204 297.466 315.08C297.466 313.406 296.17 312.452 294.856 312.146C296.188 311.75 297.196 310.778 297.196 309.284C297.196 307.322 295.45 305.918 292.822 305.918C290.716 305.918 289.276 306.854 288.286 308.096L289.618 309.464C290.464 308.528 291.4 307.934 292.624 307.934C293.956 307.934 294.928 308.636 294.928 309.644C294.928 310.724 293.974 311.318 292.516 311.3H291.13V313.244L292.516 313.226C294.262 313.226 295.18 313.802 295.18 314.9C295.18 315.98 294.262 316.718 292.786 316.718C291.454 316.718 290.266 316.124 289.402 315.152L288.034 316.628C289.042 317.834 290.698 318.716 292.858 318.716ZM300.808 318.716C301.564 318.716 302.194 318.068 302.194 317.276C302.194 316.538 301.564 315.89 300.808 315.89C299.98 315.89 299.368 316.538 299.368 317.276C299.368 318.068 299.98 318.716 300.808 318.716ZM306.628 318.5H308.86V306.134H307.06L303.586 308.492L304.504 310.076L306.628 308.726V318.5ZM313.712 318.5H315.944V306.134H314.144L310.67 308.492L311.588 310.076L313.712 308.726V318.5ZM319.626 318.5H322.164L327.276 307.826V306.134H318.348V308.186H324.666L319.626 318.5Z" fill="white"/>
<g clip-path="url(#clip1_3213_14064)">
<path d="M287.105 282.5H238.62C238.62 270.819 238.62 259.138 238.62 247.456C242.843 250.423 247.529 252.669 252.488 254.101C257.427 255.448 262.583 255.816 267.663 255.184C274.763 254.388 281.256 251.64 287.093 247.456C287.101 259.138 287.105 270.819 287.105 282.5ZM262.832 258.26C261.269 258.26 260.24 259.257 260.24 260.721C260.24 262.361 261.265 263.457 262.811 263.485C264.423 263.514 265.506 262.365 265.481 260.663C265.461 259.203 264.415 258.252 262.832 258.26ZM262.856 276.934C264.431 276.934 265.469 275.97 265.481 274.494C265.481 272.792 264.399 271.651 262.787 271.692C261.249 271.733 260.231 272.849 260.24 274.482C260.248 275.962 261.286 276.93 262.856 276.934Z" fill="#34CCA9"/>
<path d="M238.624 247.456V282.5H224.86C224.86 276.184 224.86 269.869 224.86 263.555C224.86 260.516 222.731 258.358 219.663 258.252H219.523L219.548 241.214C219.597 241.12 219.631 241.019 219.651 240.914L229.773 238.002C232.011 241.624 234.991 244.731 238.518 247.116L238.624 247.456Z" fill="#34CCA9"/>
<path d="M287.105 282.5C287.105 270.819 287.105 259.138 287.105 247.456L287.212 247.12C290.736 244.732 293.715 241.624 295.952 238.002C299.036 238.888 302.104 239.77 305.197 240.676C305.54 240.82 305.866 241.001 306.169 241.218C306.169 246.897 306.179 252.581 306.198 258.268H306.058C302.99 258.375 300.866 260.532 300.862 263.571C300.862 269.888 300.862 276.203 300.862 282.516L287.105 282.5Z" fill="#34CCA9"/>
<path d="M219.548 241.234L219.523 258.272C218.464 258.263 217.413 258.465 216.431 258.865C215.45 259.264 214.557 259.855 213.805 260.601C213.053 261.348 212.456 262.236 212.05 263.215C211.643 264.194 211.434 265.243 211.435 266.303C211.411 271.696 211.435 277.09 211.435 282.484H203.232C202.957 282.184 202.74 281.778 202.412 281.598C199.397 279.957 197.97 277.443 197.99 274.026C198.019 269.071 198.048 264.117 197.99 259.162C197.904 252.407 203.002 245.811 209.581 243.876C212.801 242.928 216.054 242.095 219.29 241.214L219.548 241.234Z" fill="#34CCA9"/>
<path d="M304 258.5C304 252.815 302.519 245.682 302.5 240C307.561 241.23 316.521 243.215 320.861 246.246C325.04 249.162 327.595 253.354 327.702 258.637C327.809 263.764 327.702 268.891 327.735 274.022C327.755 277.443 326.332 279.969 323.313 281.61C322.973 281.794 322.756 282.196 322.493 282.5H314.29C314.29 277.106 314.29 271.713 314.29 266.319C314.294 265.258 314.087 264.206 313.681 263.225C313.275 262.244 312.678 261.353 311.926 260.604C311.173 259.856 310.279 259.264 309.296 258.864C308.312 258.463 305.062 258.49 304 258.5Z" fill="#34CCA9"/>
<path d="M211.427 282.5C211.427 277.106 211.427 271.713 211.427 266.319C211.424 265.258 211.631 264.207 212.037 263.226C212.443 262.246 213.039 261.356 213.791 260.607C214.543 259.859 215.437 259.267 216.419 258.866C217.402 258.465 218.454 258.263 219.515 258.272H219.655C219.638 266.352 219.623 274.435 219.61 282.521L211.427 282.5Z" fill="#27B392"/>
<path d="M306.198 258.272C307.258 258.263 308.309 258.464 309.29 258.863C310.272 259.263 311.165 259.853 311.917 260.6C312.669 261.347 313.266 262.235 313.673 263.214C314.079 264.193 314.288 265.243 314.286 266.303C314.311 271.696 314.286 277.09 314.286 282.484H306.083L306.038 258.235L306.198 258.272Z" fill="#27B392"/>
<path d="M219.605 282.5C219.622 274.414 219.637 266.332 219.651 258.252C222.719 258.358 224.847 260.516 224.847 263.555C224.847 269.871 224.847 276.186 224.847 282.5H219.605Z" fill="#27B392"/>
<path d="M306.058 258.252L306.103 282.5H300.862C300.862 276.184 300.862 269.869 300.862 263.555C300.866 260.516 302.99 258.358 306.058 258.252Z" fill="#27B392"/>
<path d="M223.851 180.26C221.8 177.123 219.302 174.186 217.784 170.806C211.222 156.164 213.576 142.715 224.195 130.832C231.488 122.674 240.868 117.941 251.528 115.882C264.493 113.372 276.982 114.935 288.799 121.03C289.131 121.202 289.439 121.44 289.754 121.628C287.441 124.832 285.243 128.117 282.782 131.218C279.488 135.422 276.055 139.565 272.516 143.576C269.755 146.714 266.732 149.622 263.845 152.644C263.59 152.98 263.372 153.342 263.193 153.723C262.76 153.913 262.348 154.147 261.962 154.42C260.449 155.745 258.997 157.144 257.475 158.46C254.481 161.057 251.458 163.616 248.452 166.192C248.197 166.271 247.951 166.375 247.718 166.504C242.316 170.195 236.963 173.977 231.508 177.578C229.232 179.104 226.849 180.65 223.851 180.26Z" fill="#27B392"/>
<path d="M297.945 195.998C297.818 204.148 297.99 212.318 297.457 220.439C297.068 226.341 294.229 231.538 290.784 236.325L287.076 240.463C286.609 240.832 286.133 241.193 285.678 241.575C280.198 246.181 273.947 249.003 266.81 249.72C266.524 249.469 266.207 249.256 265.867 249.085C263.406 248.219 260.851 247.608 258.513 246.509C252.133 243.513 246.834 238.621 243.337 232.502C240.279 227.403 238.662 221.57 238.657 215.624V196.027L297.945 195.998ZM262.606 212.125C266.199 212.084 269.444 211.42 272.216 209.201C273.734 207.971 274.087 206.596 273.164 205.259C272.241 203.922 270.736 203.807 269.136 204.816C264.969 207.45 260.777 207.466 256.602 204.816C254.986 203.803 253.476 203.926 252.566 205.227C251.655 206.527 251.967 207.975 253.46 209.176C256.187 211.371 259.391 212.047 262.614 212.125H262.606Z" fill="#64505A"/>
<path d="M263.193 153.723C263.372 153.342 263.59 152.98 263.845 152.645C266.716 149.622 269.755 146.714 272.516 143.576C276.055 139.556 279.488 135.422 282.79 131.218C285.251 128.117 287.441 124.832 289.763 121.629C299.734 127.268 307.096 135.114 310.27 146.353C312.5 153.961 311.901 162.12 308.585 169.321C307.006 172.796 304.614 175.884 302.588 179.165C302.363 179.53 302.129 179.895 301.899 180.264C300.291 179.912 298.478 179.92 297.113 179.141C292.712 176.63 288.475 173.829 284.172 171.139L277.228 166.184C275.83 165.003 274.398 163.858 273.036 162.64C269.739 159.687 266.474 156.697 263.193 153.723Z" fill="#34CCA9"/>
<path d="M284.144 171.147C288.446 173.837 292.683 176.639 297.084 179.149C298.45 179.928 300.263 179.92 301.871 180.273C303.299 180.828 304.494 181.857 305.256 183.187C306.018 184.517 306.301 186.068 306.058 187.582C305.842 189.109 305.082 190.507 303.918 191.519C302.754 192.531 301.264 193.089 299.721 193.09C297.146 193.09 298.208 194.837 297.954 195.994L238.62 196.023L238.657 195.932C238.657 192.992 238.534 190.043 238.657 187.106C238.871 181.118 241.807 176.737 246.897 173.731C249.789 172.02 253.009 171.504 256.29 171.483C264.961 171.426 273.631 171.483 282.302 171.45C282.923 171.398 283.539 171.297 284.144 171.147ZM243.879 183.767C243.879 186.351 244.883 187.828 246.643 187.824C248.403 187.82 249.403 186.347 249.399 183.747C249.395 181.146 248.374 179.67 246.618 179.682C244.863 179.694 243.879 181.187 243.879 183.771V183.767ZM281.843 183.767C281.843 183.328 281.875 182.889 281.843 182.459C281.804 181.772 281.529 181.12 281.064 180.613C280.599 180.106 279.972 179.775 279.291 179.678C277.999 179.559 276.728 180.58 276.449 182.094C276.329 182.901 276.293 183.719 276.342 184.534C276.408 186.466 277.54 187.791 279.078 187.815C280.616 187.84 281.822 186.425 281.855 184.428C281.847 184.223 281.843 184.005 281.843 183.788V183.767Z" fill="#CC906E"/>
<path d="M239 196V217C239.004 222.946 242.466 228.401 245.524 233.5C249.021 239.619 253.121 243.525 259.5 246.521C261.838 247.62 264.047 248.135 266.5 249C266.84 249.171 267.214 249.749 267.5 250C262.344 250.894 256.622 249.811 251.713 248.256C246.803 246.702 242.521 243.908 238.633 240.537L234.896 236.476C233.313 233.646 231.537 230.902 230.196 227.957C228.17 223.499 227.632 218.684 227.591 213.823C227.558 209.632 227.591 205.44 227.591 201.248C227.698 199.542 227.809 197.836 227.932 195.937H238.653L239 196Z" fill="#5A4650"/>
<path d="M238.657 195.937H227.936C227.813 197.836 227.702 199.542 227.595 201.248V193.455C223.42 193.254 220.212 191.741 219.655 187.254C219.245 183.972 220.844 181.577 223.851 180.281C226.849 180.671 229.232 179.124 231.516 177.611C236.971 173.997 242.324 170.228 247.726 166.537C247.96 166.407 248.208 166.303 248.464 166.225H277.228L284.144 171.147C283.532 171.298 282.909 171.399 282.281 171.45C273.611 171.471 264.94 171.426 256.269 171.483C252.988 171.504 249.768 172.02 246.877 173.731C241.787 176.737 239.213 181.008 239 187C238.897 189.941 238.645 192.996 238.657 195.937Z" fill="#B57F60"/>
<path d="M287.076 240.463L290.792 236.312L295.952 237.994C293.712 241.615 290.73 244.721 287.203 247.108C287.162 244.901 287.12 242.686 287.076 240.463Z" fill="#27B392"/>
<path d="M234.913 236.476L238.649 240.537C238.603 242.724 238.559 244.919 238.518 247.12C234.991 244.734 232.01 241.626 229.773 238.002L234.913 236.476Z" fill="#27B392"/>
<path d="M219.548 241.234H219.281L219.651 240.939C219.631 241.042 219.596 241.141 219.548 241.234Z" fill="#DBD8DA"/>
<path d="M238.519 247.157C238.562 244.97 238.606 242.775 238.65 240.574C242.538 243.946 246.783 246.727 251.73 248.293C256.676 249.86 261.635 250.664 266.791 249.77C273.948 249.052 280.199 246.23 285.658 241.624C286.113 241.243 287.033 240.406 287.501 240.037C287.547 242.252 288 246 287.184 247.157C287.151 247.268 287.114 247.379 287.077 247.494C281.24 251.677 274.748 254.425 267.648 255.221C262.567 255.853 257.412 255.485 252.472 254.138C247.514 252.706 242.827 250.461 238.605 247.494C238.588 247.379 238.555 247.268 238.519 247.157Z" fill="#27B392"/>
<path d="M262.832 258.26C264.415 258.26 265.461 259.203 265.481 260.68C265.506 262.382 264.423 263.551 262.811 263.502C261.265 263.473 260.24 262.37 260.24 260.737C260.24 259.256 261.269 258.268 262.832 258.26Z" fill="#FEFEFE"/>
<path d="M262.856 276.934C261.286 276.934 260.248 275.962 260.24 274.473C260.24 272.833 261.249 271.725 262.787 271.684C264.399 271.643 265.498 272.783 265.481 274.486C265.469 275.97 264.431 276.934 262.856 276.934Z" fill="#FEFDFE"/>
<path d="M277.228 166.184H248.464C251.47 163.608 254.493 161.049 257.487 158.452C259.009 157.136 260.461 155.737 261.975 154.412C262.36 154.139 262.772 153.905 263.205 153.715C266.486 156.689 269.768 159.679 273.049 162.632C274.398 163.858 275.83 164.994 277.228 166.184Z" fill="white"/>
<path d="M262.614 212.125C259.374 212.047 256.187 211.371 253.468 209.18C251.975 207.979 251.635 206.555 252.574 205.231C253.513 203.906 254.994 203.82 256.61 204.821C260.785 207.454 264.977 207.437 269.144 204.821C270.744 203.812 272.274 203.959 273.172 205.263C274.07 206.568 273.742 207.991 272.224 209.205C269.452 211.42 266.207 212.084 262.614 212.125Z" fill="#CB8F6D"/>
<path d="M243.879 183.771C243.879 181.187 244.875 179.703 246.618 179.67C248.362 179.637 249.399 181.159 249.399 183.734C249.399 186.31 248.407 187.807 246.643 187.811C244.879 187.815 243.879 186.355 243.879 183.771Z" fill="#5D4851"/>
<path d="M281.843 183.788C281.843 184.005 281.843 184.222 281.843 184.44C281.81 186.437 280.661 187.84 279.066 187.828C277.47 187.815 276.396 186.486 276.33 184.546C276.281 183.731 276.317 182.914 276.437 182.106C276.716 180.593 277.987 179.571 279.279 179.69C279.96 179.788 280.586 180.118 281.051 180.625C281.517 181.132 281.792 181.784 281.83 182.471C281.867 182.902 281.83 183.341 281.83 183.779L281.843 183.788Z" fill="#5D4851"/>
</g>
</g>
<defs>
<filter id="filter0_d_3213_14064" x="33" y="0.5" width="460" height="490" filterUnits="userSpaceOnUse" color-interpolation-filters="sRGB">
<feFlood flood-opacity="0" result="BackgroundImageFix"/>
<feColorMatrix in="SourceAlpha" type="matrix" values="0 0 0 0 0 0 0 0 0 0 0 0 0 0 0 0 0 0 127 0" result="hardAlpha"/>
<feOffset dy="8"/>
<feGaussianBlur stdDeviation="40"/>
<feColorMatrix type="matrix" values="0 0 0 0 0.109804 0 0 0 0 0.109804 0 0 0 0 0.12549 0 0 0 0.12 0"/>
<feBlend mode="normal" in2="BackgroundImageFix" result="effect1_dropShadow_3213_14064"/>
<feBlend mode="normal" in="SourceGraphic" in2="effect1_dropShadow_3213_14064" result="shape"/>
</filter>
<linearGradient id="paint0_linear_3213_14064" x1="150" y1="22.5" x2="150" y2="352.5" gradientUnits="userSpaceOnUse">
<stop offset="0.208333" stop-color="#F3F4F8"/>
<stop offset="1" stop-color="#F3F4F8" stop-opacity="0.21"/>
</linearGradient>
<clipPath id="clip0_3213_14064">
<rect width="140" height="158.527" fill="white" transform="translate(80 73.5)"/>
</clipPath>
<clipPath id="clip1_3213_14064">
<rect width="168" height="168" fill="white" transform="translate(179 114.5)"/>
</clipPath>
</defs>
</svg>
