<svg width="493" height="490" viewBox="0 0 493 490" fill="none" xmlns="http://www.w3.org/2000/svg">
<rect y="22" width="300" height="330" rx="6" fill="url(#paint0_linear_2884_14853)"/>
<rect x="30" y="52" width="240" height="180" rx="6" fill="white"/>
<path d="M93.0767 254.22C93.4183 253.399 94.5817 253.399 94.9233 254.22L97.4685 260.339C97.6125 260.685 97.9381 260.922 98.3119 260.952L104.918 261.482C105.805 261.553 106.164 262.659 105.489 263.238L100.456 267.549C100.171 267.793 100.046 268.176 100.133 268.541L101.671 274.988C101.878 275.853 100.936 276.537 100.177 276.073L94.5213 272.618C94.2012 272.423 93.7988 272.423 93.4787 272.618L87.8228 276.073C87.0637 276.537 86.1225 275.853 86.3289 274.988L87.8666 268.541C87.9536 268.176 87.8293 267.793 87.5445 267.549L82.5112 263.238C81.8356 262.659 82.1952 261.553 83.0818 261.482L89.6881 260.952C90.0619 260.922 90.3875 260.685 90.5315 260.339L93.0767 254.22Z" fill="#DDDDE8"/>
<path d="M121.077 254.22C121.418 253.399 122.582 253.399 122.923 254.22L125.468 260.339C125.612 260.685 125.938 260.922 126.312 260.952L132.918 261.482C133.805 261.553 134.164 262.659 133.489 263.238L128.456 267.549C128.171 267.793 128.046 268.176 128.133 268.541L129.671 274.988C129.878 275.853 128.936 276.537 128.177 276.073L122.521 272.618C122.201 272.423 121.799 272.423 121.479 272.618L115.823 276.073C115.064 276.537 114.122 275.853 114.329 274.988L115.867 268.541C115.954 268.176 115.829 267.793 115.544 267.549L110.511 263.238C109.836 262.659 110.195 261.553 111.082 261.482L117.688 260.952C118.062 260.922 118.388 260.685 118.532 260.339L121.077 254.22Z" fill="#DDDDE8"/>
<path d="M149.077 254.22C149.418 253.399 150.582 253.399 150.923 254.22L153.468 260.339C153.612 260.685 153.938 260.922 154.312 260.952L160.918 261.482C161.805 261.553 162.164 262.659 161.489 263.238L156.456 267.549C156.171 267.793 156.046 268.176 156.133 268.541L157.671 274.988C157.878 275.853 156.936 276.537 156.177 276.073L150.521 272.618C150.201 272.423 149.799 272.423 149.479 272.618L143.823 276.073C143.064 276.537 142.122 275.853 142.329 274.988L143.867 268.541C143.954 268.176 143.829 267.793 143.544 267.549L138.511 263.238C137.836 262.659 138.195 261.553 139.082 261.482L145.688 260.952C146.062 260.922 146.388 260.685 146.532 260.339L149.077 254.22Z" fill="#DDDDE8"/>
<path d="M177.538 254.412C177.709 254.001 178.291 254.001 178.462 254.412L181.007 260.531C181.223 261.051 181.711 261.405 182.272 261.45L188.878 261.98C189.322 262.016 189.501 262.569 189.164 262.858L184.13 267.17C183.703 267.536 183.517 268.11 183.647 268.657L185.185 275.104C185.288 275.536 184.817 275.878 184.438 275.646L178.782 272.192C178.302 271.898 177.698 271.898 177.218 272.192L171.562 275.646C171.183 275.878 170.712 275.536 170.815 275.104L172.353 268.657C172.483 268.11 172.297 267.536 171.87 267.17L166.836 262.858C166.499 262.569 166.678 262.016 167.122 261.98L173.728 261.45C174.289 261.405 174.777 261.051 174.993 260.531L177.538 254.412Z" stroke="#DDDDE8"/>
<path d="M205.538 254.412C205.709 254.001 206.291 254.001 206.462 254.412L209.007 260.531C209.223 261.051 209.711 261.405 210.272 261.45L216.878 261.98C217.322 262.016 217.501 262.569 217.164 262.858L212.13 267.17C211.703 267.536 211.517 268.11 211.647 268.657L213.185 275.104C213.288 275.536 212.817 275.878 212.438 275.646L206.782 272.192C206.302 271.898 205.698 271.898 205.218 272.192L199.562 275.646C199.183 275.878 198.712 275.536 198.815 275.104L200.353 268.657C200.483 268.11 200.297 267.536 199.87 267.17L194.836 262.858C194.499 262.569 194.678 262.016 195.122 261.98L201.728 261.45C202.289 261.405 202.777 261.051 202.993 260.531L205.538 254.412Z" stroke="#DDDDE8"/>
<g opacity="0.5" clip-path="url(#clip0_2884_14853)">
<path d="M137.132 163.25C137.132 163.25 123.23 172.019 130.784 185.323C138.338 198.626 190.636 194.99 163.73 163.25C141.548 137.033 137.132 163.25 137.132 163.25Z" fill="#8F8F9F"/>
<path d="M188.061 129.397C188.061 129.397 182.012 136.652 183.218 143.907C184.959 154.345 169.017 168.093 152.693 163.558C136.37 159.024 153.899 128.49 153.899 128.49L188.061 129.397Z" fill="#8F8F9F"/>
<path d="M111.74 129.397C111.74 129.397 117.789 136.652 116.573 143.907C114.869 154.345 130.784 168.093 147.107 163.558C163.431 159.024 145.901 128.49 145.901 128.49L111.74 129.397Z" fill="#8F8F9F"/>
<path d="M153.265 152.232C160.795 152.471 168.268 150.858 175.029 147.534C178.277 145.82 181.074 143.362 183.191 140.361C183.871 134.467 188.079 129.397 188.079 129.397L153.918 128.49C153.918 128.49 146.481 141.44 145.81 151.724C148.285 152.022 150.773 152.192 153.265 152.232Z" fill="#DDDDE8"/>
<path d="M116.746 142.637C128.005 148.636 140.511 151.921 153.265 152.232H154.072C153.609 141.876 145.91 128.5 145.91 128.5L111.74 129.397C111.74 129.397 117.181 135.827 116.746 142.637Z" fill="#DDDDE8"/>
<path d="M168.182 178.376C160.492 174.187 162.587 153.891 162.587 153.891L151.07 154.617V153.873L149.828 154.272L148.594 153.9V154.617L137.132 153.9C137.132 153.9 139.227 174.187 131.536 178.385C123.846 182.584 76.5812 184.679 81.4691 231.536H218.25C223.147 184.67 175.882 182.575 168.182 178.376Z" fill="#DDDDE8"/>
<path d="M135.472 173.144C144.674 171.771 153.869 170.357 163.059 168.9C162.289 163.938 162.13 158.901 162.587 153.9L151.07 154.617V153.873L149.828 154.272L148.594 153.9V154.617L137.132 153.9C137.132 153.9 138.302 165.689 135.472 173.144Z" fill="#F3F4F8"/>
<path d="M183.826 181.986C177.097 188.089 167.158 192.315 155.813 193.403L149.71 215.376L146.472 193.612C134.184 192.895 123.357 188.524 116.174 182.013C100.205 187.109 76.8714 198.2 80.3446 231.518H219.655C223.138 198.2 199.804 187.109 183.826 181.986Z" fill="#7D7D82"/>
<path d="M147.307 199.18L146.472 193.611C134.184 192.895 123.357 188.524 116.174 182.013C113.295 182.928 110.467 184 107.704 185.223C113.363 192.895 128.789 198.563 147.307 199.18Z" fill="#F6F7F8"/>
<path d="M193.239 185.622C190.182 184.212 187.038 183 183.826 181.995C177.097 188.098 167.158 192.324 155.813 193.412L154.217 199.18C172.281 198.527 187.362 193.076 193.239 185.622Z" fill="#F6F7F8"/>
<path d="M148.322 220.717C148.322 221.22 148.471 221.711 148.75 222.128C149.029 222.546 149.426 222.871 149.89 223.063C150.354 223.256 150.864 223.306 151.357 223.208C151.849 223.11 152.302 222.868 152.657 222.513C153.012 222.158 153.254 221.705 153.352 221.213C153.45 220.72 153.4 220.21 153.207 219.746C153.015 219.282 152.69 218.885 152.272 218.606C151.855 218.327 151.364 218.178 150.862 218.178C150.188 218.178 149.542 218.446 149.066 218.922C148.59 219.398 148.322 220.044 148.322 220.717Z" fill="#F6F7F8"/>
<path d="M127.32 124.219C125.052 117.182 119.684 118.778 119.158 118.977C118.632 119.177 113.091 119.884 114.043 127.194C114.995 134.503 119.303 138.556 123.311 137.387C127.438 136.725 129.596 131.283 127.32 124.219Z" fill="#F3F4F8"/>
<path d="M172.572 124.219C174.839 117.182 180.198 118.778 180.733 118.977C181.268 119.177 186.809 119.884 185.848 127.194C184.887 134.503 180.579 138.556 176.571 137.387C172.445 136.725 170.286 131.283 172.572 124.219Z" fill="#F3F4F8"/>
<path d="M121.815 113.564C124.626 82.7306 148.059 84.4627 150.272 84.6984C152.476 84.4627 175.909 82.7396 178.72 113.564C181.568 144.569 167.738 164.819 150.272 163.685C132.806 164.819 118.995 144.569 121.815 113.564Z" fill="#F6F7F8"/>
<path d="M120.808 119.422C120.808 119.422 119.294 159.931 143.18 164.465C167.067 169 181.867 149.049 179.754 117.309L176.734 117.001C176.734 117.001 174.766 149.049 167.511 149.348C160.257 149.647 170.985 139.373 157.083 138.765C143.18 138.158 136.297 133.533 135.164 145.267C134.411 153.13 124.771 139.672 123.529 118.814C122.287 97.9567 120.808 119.422 120.808 119.422Z" fill="#DDDDE8"/>
<path d="M154.308 117.182C154.698 118.597 154.997 120.02 155.269 121.444C155.541 122.868 155.768 124.31 155.967 125.743C156.076 126.459 156.148 127.176 156.239 127.901C156.33 128.626 156.411 129.334 156.475 130.059C156.629 131.501 156.738 132.943 156.82 134.394V134.784L156.538 134.956C155.632 135.528 154.679 136.072 153.736 136.607C152.793 137.142 151.832 137.668 150.834 138.13C151.632 137.378 152.467 136.679 153.301 135.981C154.135 135.283 154.988 134.621 155.858 133.959L155.595 134.53C155.36 133.097 155.151 131.655 154.988 130.223C154.897 129.497 154.806 128.781 154.743 128.064C154.679 127.348 154.589 126.622 154.534 125.897C154.416 124.455 154.326 123.004 154.28 121.553C154.235 120.102 154.235 118.642 154.308 117.182Z" fill="#DDDDE8"/>
<path d="M172.372 114.897L171.701 114.525L170.948 114.108L169.996 113.609C169.642 113.455 169.28 113.246 168.872 113.092L168.273 112.82L167.638 112.593C167.221 112.403 166.731 112.339 166.341 112.185C165.899 112.091 165.451 112.028 164.999 111.995L164.337 111.931C164.12 111.931 163.902 111.931 163.675 111.931C163.241 111.961 162.81 112.028 162.388 112.131C161.961 112.203 161.571 112.412 161.172 112.512L160.873 112.602L160.601 112.747L160.066 112.992C159.755 113.131 159.452 113.289 159.159 113.464C158.887 113.636 158.633 113.772 158.425 113.89C157.998 114.117 157.726 114.235 157.726 114.235C157.726 114.235 157.835 113.981 158.071 113.545C158.189 113.328 158.334 113.065 158.524 112.775C158.731 112.441 158.981 112.136 159.268 111.868C159.574 111.505 159.924 111.182 160.311 110.906C160.722 110.607 161.159 110.346 161.617 110.127C161.889 110.018 162.161 109.927 162.442 109.827C162.733 109.715 163.038 109.644 163.349 109.619C163.648 109.619 163.956 109.528 164.256 109.501H165.163C165.779 109.549 166.388 109.671 166.976 109.864C167.257 109.963 167.529 110.09 167.792 110.199C168.057 110.302 168.309 110.432 168.545 110.589C168.781 110.734 169.017 110.87 169.234 111.015L169.833 111.496C170.189 111.791 170.522 112.112 170.83 112.457C171.292 112.967 171.691 113.53 172.018 114.135C172.159 114.378 172.277 114.633 172.372 114.897Z" fill="#8F8F9F"/>
<path d="M143.18 114.897L142.509 114.525L141.757 114.108L140.85 113.609C140.496 113.455 140.133 113.246 139.734 113.092L139.127 112.82L138.501 112.593C138.084 112.403 137.594 112.339 137.195 112.185C136.738 112.089 136.274 112.026 135.808 111.995L135.137 111.94C134.919 111.94 134.701 111.94 134.475 111.94C134.041 111.971 133.61 112.037 133.187 112.14C132.761 112.212 132.371 112.421 131.972 112.521L131.673 112.611L131.4 112.756L130.865 113.001C130.539 113.14 130.221 113.298 129.913 113.473C129.641 113.645 129.387 113.781 129.179 113.899C128.752 114.126 128.48 114.244 128.48 114.244C128.48 114.244 128.589 113.99 128.825 113.555C128.952 113.337 129.097 113.074 129.287 112.784C129.488 112.448 129.735 112.142 130.022 111.877C130.328 111.514 130.678 111.191 131.065 110.916C131.502 110.596 131.97 110.319 132.461 110.09C132.734 109.982 133.006 109.891 133.287 109.791C133.577 109.678 133.883 109.608 134.194 109.582C134.493 109.582 134.801 109.492 135.1 109.465H136.007C136.624 109.515 137.232 109.637 137.821 109.827C138.093 109.927 138.365 110.054 138.628 110.163C138.892 110.265 139.145 110.396 139.381 110.553C139.617 110.698 139.852 110.834 140.07 110.979L140.678 111.46C141.029 111.786 141.359 112.134 141.666 112.503C142.122 113.015 142.518 113.578 142.845 114.18C142.977 114.409 143.089 114.649 143.18 114.897Z" fill="#8F8F9F"/>
<path d="M142.255 126.06C142.255 126.06 142.192 125.815 142.047 125.389C141.853 124.836 141.617 124.3 141.34 123.784C140.965 123.079 140.446 122.461 139.816 121.97C139.476 121.703 139.088 121.503 138.673 121.381C138.475 121.271 138.261 121.195 138.039 121.154C137.819 121.104 137.593 121.085 137.368 121.1C137.15 121.1 136.878 121.1 136.706 121.1C136.467 121.124 136.23 121.166 135.998 121.226C135.601 121.334 135.226 121.512 134.892 121.752C134.564 122.005 134.282 122.312 134.058 122.659C133.839 122.965 133.654 123.294 133.504 123.639C133.287 124.199 133.126 124.779 133.024 125.371C132.951 125.806 132.924 126.06 132.924 126.06C132.871 125.83 132.831 125.597 132.806 125.362C132.747 124.728 132.78 124.09 132.906 123.466C132.988 123.034 133.131 122.616 133.332 122.224C133.552 121.766 133.86 121.357 134.239 121.018C134.665 120.644 135.17 120.371 135.717 120.22C135.967 120.148 136.221 120.093 136.479 120.057C136.781 120.038 137.084 120.038 137.386 120.057C137.663 120.06 137.939 120.09 138.211 120.147C138.491 120.183 138.766 120.257 139.027 120.365C139.291 120.451 139.541 120.573 139.771 120.728C140.006 120.862 140.226 121.023 140.424 121.208C141.111 121.843 141.621 122.647 141.902 123.539C142.099 124.125 142.218 124.735 142.255 125.353C142.273 125.588 142.273 125.825 142.255 126.06Z" fill="#8F8F9F"/>
<path d="M168.482 125.643C168.482 125.643 168.418 125.389 168.273 124.972C168.084 124.4 167.848 123.845 167.566 123.312C167.195 122.607 166.679 121.989 166.051 121.499C165.708 121.237 165.321 121.037 164.909 120.909C164.702 120.83 164.485 120.778 164.265 120.755C164.043 120.714 163.819 120.696 163.594 120.701C163.373 120.686 163.152 120.686 162.932 120.701C162.689 120.72 162.45 120.763 162.215 120.828C161.818 120.93 161.443 121.105 161.109 121.344C160.783 121.599 160.502 121.906 160.275 122.251C160.071 122.574 159.895 122.914 159.749 123.267C159.533 123.824 159.374 124.401 159.277 124.99C159.232 125.221 159.198 125.454 159.177 125.688C159.119 125.456 159.08 125.219 159.059 124.981C158.992 124.348 159.022 123.709 159.15 123.086C159.24 122.655 159.384 122.238 159.576 121.843C159.797 121.388 160.105 120.982 160.483 120.646C160.911 120.267 161.42 119.991 161.97 119.839C162.22 119.768 162.475 119.716 162.732 119.685C163.016 119.659 163.301 119.659 163.585 119.685C163.866 119.679 164.146 119.709 164.419 119.776C164.697 119.812 164.968 119.885 165.226 119.993C165.493 120.074 165.746 120.193 165.979 120.347C166.211 120.486 166.43 120.647 166.632 120.828C167.319 121.462 167.829 122.266 168.11 123.158C168.305 123.745 168.424 124.355 168.464 124.972C168.483 125.195 168.489 125.419 168.482 125.643Z" fill="#8F8F9F"/>
<path d="M162.215 143.671C156.638 149.112 147.189 148.795 140.034 143.961L162.215 143.671Z" fill="white"/>
<path d="M150.735 89.1965C150.735 89.1965 133.804 86.1676 131.083 96.7505C128.362 107.334 132.298 121.535 119.902 119.422C119.902 119.422 110.915 121.236 116.655 135.446C116.655 135.446 99.6515 119.123 109.627 107.334C117.716 97.7118 114.46 76.7998 134.411 73.4716C154.362 70.1435 150.735 85.2607 150.735 89.1965Z" fill="#76413B"/>
<path d="M150.735 89.1965C150.735 89.1965 133.804 86.1676 131.083 96.7505C128.362 107.334 132.298 121.535 119.902 119.422C119.902 119.422 110.915 121.236 116.655 135.446C116.655 135.446 99.6515 119.123 109.627 107.334C117.716 97.7118 114.46 76.7998 134.411 73.4716C154.362 70.1435 150.735 85.2607 150.735 89.1965Z" fill="#DDDDE8"/>
<path d="M149.148 89.1965C149.148 89.1965 166.069 86.1676 168.79 96.7505C171.511 107.334 167.584 121.535 179.981 119.422C179.981 119.422 188.967 121.236 183.218 135.446C183.218 135.446 200.231 119.123 190.255 107.334C182.094 97.7118 185.422 76.7998 165.471 73.4716C145.52 70.1435 149.148 85.2607 149.148 89.1965Z" fill="#DDDDE8"/>
</g>
<g filter="url(#filter0_d_2884_14853)">
<rect x="113" y="72" width="300" height="330" rx="6" fill="#291A7A"/>
<rect x="143" y="102" width="240" height="180" rx="6" fill="white"/>
<path d="M199.366 318H201.598V305.634H199.798L196.324 307.992L197.242 309.576L199.366 308.226V318ZM208.646 318.216C211.31 318.216 213.47 316.92 213.47 314.706C213.47 313.248 212.408 312.168 210.95 311.61C212.192 311.106 213.146 310.188 213.146 308.748C213.146 306.66 211.04 305.418 208.646 305.418C206.324 305.418 204.164 306.624 204.164 308.748C204.164 310.152 205.082 311.07 206.36 311.61C204.92 312.132 203.84 313.212 203.84 314.706C203.84 316.902 205.964 318.216 208.646 318.216ZM208.646 310.8C207.62 310.746 206.378 310.134 206.378 309.036C206.378 308.064 207.35 307.326 208.646 307.326C209.942 307.326 210.932 308.064 210.932 309.036C210.932 310.116 209.708 310.746 208.646 310.8ZM208.646 316.29C207.188 316.29 206.09 315.57 206.09 314.49C206.09 313.338 207.512 312.654 208.646 312.6C209.798 312.654 211.202 313.338 211.202 314.49C211.202 315.57 210.086 316.29 208.646 316.29ZM220.529 318.216C223.697 318.216 225.929 315.57 225.929 311.808C225.929 308.064 223.697 305.418 220.529 305.418C217.343 305.418 215.093 308.064 215.093 311.808C215.093 315.57 217.343 318.216 220.529 318.216ZM220.529 316.164C218.693 316.164 217.397 314.364 217.397 311.808C217.397 309.252 218.693 307.47 220.529 307.47C222.347 307.47 223.643 309.252 223.643 311.808C223.643 314.364 222.347 316.164 220.529 316.164ZM229.37 318.216C230.126 318.216 230.756 317.568 230.756 316.776C230.756 316.038 230.126 315.39 229.37 315.39C228.542 315.39 227.93 316.038 227.93 316.776C227.93 317.568 228.542 318.216 229.37 318.216ZM232.634 318H241.724V315.948H236.126L238.718 313.86C240.842 312.222 241.598 310.908 241.598 309.27C241.598 306.984 239.726 305.418 237.278 305.418C235.28 305.418 233.786 306.3 232.616 307.83L234.074 309.18C234.974 308.1 235.91 307.434 237.206 307.434C238.322 307.434 239.312 308.154 239.312 309.324C239.312 310.332 238.754 311.268 237.188 312.528L232.634 316.164V318ZM248.034 318.216C250.824 318.216 252.642 316.704 252.642 314.58C252.642 312.906 251.346 311.952 250.032 311.646C251.364 311.25 252.372 310.278 252.372 308.784C252.372 306.822 250.626 305.418 247.998 305.418C245.892 305.418 244.452 306.354 243.462 307.596L244.794 308.964C245.64 308.028 246.576 307.434 247.8 307.434C249.132 307.434 250.104 308.136 250.104 309.144C250.104 310.224 249.15 310.818 247.692 310.8H246.306V312.744L247.692 312.726C249.438 312.726 250.356 313.302 250.356 314.4C250.356 315.48 249.438 316.218 247.962 316.218C246.63 316.218 245.442 315.624 244.578 314.652L243.21 316.128C244.218 317.334 245.874 318.216 248.034 318.216ZM259.007 318.216C261.671 318.216 263.831 316.92 263.831 314.706C263.831 313.248 262.769 312.168 261.311 311.61C262.553 311.106 263.507 310.188 263.507 308.748C263.507 306.66 261.401 305.418 259.007 305.418C256.685 305.418 254.525 306.624 254.525 308.748C254.525 310.152 255.443 311.07 256.721 311.61C255.281 312.132 254.201 313.212 254.201 314.706C254.201 316.902 256.325 318.216 259.007 318.216ZM259.007 310.8C257.981 310.746 256.739 310.134 256.739 309.036C256.739 308.064 257.711 307.326 259.007 307.326C260.303 307.326 261.293 308.064 261.293 309.036C261.293 310.116 260.069 310.746 259.007 310.8ZM259.007 316.29C257.549 316.29 256.451 315.57 256.451 314.49C256.451 313.338 257.873 312.654 259.007 312.6C260.159 312.654 261.563 313.338 261.563 314.49C261.563 315.57 260.447 316.29 259.007 316.29ZM267.11 318.216C267.866 318.216 268.496 317.568 268.496 316.776C268.496 316.038 267.866 315.39 267.11 315.39C266.282 315.39 265.67 316.038 265.67 316.776C265.67 317.568 266.282 318.216 267.11 318.216ZM272.93 318H275.162V305.634H273.362L269.888 307.992L270.806 309.576L272.93 308.226V318ZM277.458 318H286.548V315.948H280.95L283.542 313.86C285.666 312.222 286.422 310.908 286.422 309.27C286.422 306.984 284.55 305.418 282.102 305.418C280.104 305.418 278.61 306.3 277.44 307.83L278.898 309.18C279.798 308.1 280.734 307.434 282.03 307.434C283.146 307.434 284.136 308.154 284.136 309.324C284.136 310.332 283.578 311.268 282.012 312.528L277.458 316.164V318ZM292.858 318.216C295.648 318.216 297.466 316.704 297.466 314.58C297.466 312.906 296.17 311.952 294.856 311.646C296.188 311.25 297.196 310.278 297.196 308.784C297.196 306.822 295.45 305.418 292.822 305.418C290.716 305.418 289.276 306.354 288.286 307.596L289.618 308.964C290.464 308.028 291.4 307.434 292.624 307.434C293.956 307.434 294.928 308.136 294.928 309.144C294.928 310.224 293.974 310.818 292.516 310.8H291.13V312.744L292.516 312.726C294.262 312.726 295.18 313.302 295.18 314.4C295.18 315.48 294.262 316.218 292.786 316.218C291.454 316.218 290.266 315.624 289.402 314.652L288.034 316.128C289.042 317.334 290.698 318.216 292.858 318.216ZM300.808 318.216C301.564 318.216 302.194 317.568 302.194 316.776C302.194 316.038 301.564 315.39 300.808 315.39C299.98 315.39 299.368 316.038 299.368 316.776C299.368 317.568 299.98 318.216 300.808 318.216ZM306.628 318H308.86V305.634H307.06L303.586 307.992L304.504 309.576L306.628 308.226V318ZM313.712 318H315.944V305.634H314.144L310.67 307.992L311.588 309.576L313.712 308.226V318ZM319.626 318H322.164L327.276 307.326V305.634H318.348V307.686H324.666L319.626 318Z" fill="white"/>
<g clip-path="url(#clip1_2884_14853)">
<path d="M282.515 226.83C274.532 222.471 276.706 201.413 276.706 201.413L264.751 202.185V201.423L263.471 201.808L262.191 201.423V202.185L250.235 201.413C250.235 201.413 252.41 222.471 244.427 226.83C236.444 231.189 189.235 233.363 194.337 281.994H332.595C337.679 233.363 290.497 231.179 282.515 226.83Z" fill="#FFAC9D"/>
<path d="M248.541 221.398C258.099 219.967 267.644 218.499 277.177 216.993C276.384 211.838 276.223 206.606 276.697 201.413L264.742 202.185V201.423L263.461 201.808L262.181 201.423V202.185L250.226 201.413C250.226 201.413 251.487 213.651 248.541 221.398Z" fill="#D67374"/>
<path d="M285 226.453C281.009 224.279 279.54 217.981 279.069 212.164C275.567 213.491 268.545 214.263 264.007 214.263C258.595 214.263 251.77 213.152 247.891 211.297C247.496 217.332 246.084 224.166 241.904 226.453C233.865 230.84 188.246 233.043 193.358 281.994H332.595C337.716 233.034 293.039 230.84 285 226.453Z" fill="#34CCA9"/>
<path d="M263.403 237.452C274.379 237.452 284.226 233.8 290.947 228.039C289.043 227.589 287.187 226.959 285.403 226.156C281.411 223.981 279.943 217.684 279.472 211.866C275.961 213.193 268.948 213.965 264.41 213.965C258.997 213.965 252.173 212.854 248.294 211C247.899 217.034 246.487 223.868 242.307 226.156C240.283 227.051 238.181 227.756 236.028 228.265C242.787 233.885 252.54 237.452 263.403 237.452Z" fill="#27B392"/>
<path d="M214.857 264.046C214.96 255.212 213.88 246.404 211.647 237.857C200.35 245.19 190.937 257.937 193.394 281.659H213.52C214.429 275.832 214.876 269.943 214.857 264.046Z" fill="#27B392"/>
<path d="M314.19 237.462C311.882 246.131 310.767 255.075 310.876 264.046C310.858 269.94 311.305 275.826 312.213 281.65H332.593C335.145 257.494 325.524 244.729 314.19 237.462Z" fill="#27B392"/>
<path d="M240.068 170.602C237.715 163.307 232.142 164.954 231.596 165.171C231.05 165.387 225.289 166.112 226.287 173.643C227.285 181.174 231.775 185.485 235.936 184.271C240.219 183.603 242.45 177.954 240.068 170.602Z" fill="#FDC2AB"/>
<path d="M287.061 170.602C289.415 163.307 294.988 164.954 295.534 165.171C296.08 165.387 301.841 166.112 300.843 173.643C299.845 181.174 295.383 185.485 291.222 184.271C286.939 183.603 284.699 177.954 287.061 170.602Z" fill="#FDC2AB"/>
<path d="M234.42 159.541C237.329 127.535 261.663 129.342 263.951 129.578C266.248 129.342 290.573 127.544 293.491 159.541C296.419 191.736 282.082 212.757 263.951 211.599C245.783 212.785 231.446 191.736 234.42 159.541Z" fill="#FDC2AB"/>
<path d="M233.215 137.071C233.215 137.071 226.626 141.307 231.333 155.898L234.157 172.372L236.51 172.843C236.51 172.843 235.569 147.896 243.57 142.248C251.572 136.6 233.215 137.071 233.215 137.071Z" fill="black"/>
<path d="M283.578 139.424C283.578 139.424 252.043 157.781 235.098 143.19C218.153 128.598 236.039 121.068 243.1 122.009C243.1 122.009 240.746 114.007 250.16 113.066C259.574 112.125 257.691 121.538 271.811 121.538C285.932 121.538 292.992 122.48 291.58 134.247C291.58 134.247 298.64 130.011 300.994 138.012C303.347 146.014 294.404 172.372 294.404 172.372L293.463 176.608H291.109V154.015C291.109 154.015 282.166 156.839 283.578 139.424Z" fill="#1C1C20"/>
<path d="M300.994 138.012C298.64 130.011 291.58 134.247 291.58 134.247C292.39 127.469 290.394 124.287 285.857 122.809C285.017 129.62 282.607 136.142 278.815 141.862C281.771 140.469 283.578 139.424 283.578 139.424C282.166 156.839 291.109 154.015 291.109 154.015V176.608H293.463L294.404 172.372C294.404 172.372 303.347 146.014 300.994 138.012Z" fill="black"/>
<path d="M268.112 163.297C268.517 164.766 268.827 166.244 269.11 167.722C269.392 169.2 269.618 170.696 269.834 172.184C269.947 172.927 270.023 173.681 270.117 174.424C270.211 175.168 270.286 175.921 270.362 176.665C270.522 178.161 270.625 179.668 270.719 181.164V181.569L270.428 181.748C269.486 182.341 268.545 182.915 267.519 183.471C266.493 184.026 265.561 184.544 264.544 185.052C265.363 184.261 266.238 183.546 267.095 182.821C267.952 182.096 268.855 181.4 269.75 180.722L269.486 181.306C269.241 179.818 269.025 178.331 268.846 176.834C268.752 176.09 268.658 175.347 268.592 174.594C268.526 173.841 268.441 173.097 268.385 172.344C268.262 170.847 268.168 169.341 268.112 167.835C268.055 166.328 268.036 164.822 268.112 163.297Z" fill="#D67374"/>
<path d="M276.32 190.795C270.522 196.443 260.713 196.113 253.285 191.096L276.32 190.795Z" fill="white"/>
<path d="M286.854 160.925L286.195 160.539L285.424 160.115L284.482 159.588C284.106 159.428 283.729 159.212 283.315 159.052L282.694 158.779L282.035 158.534C281.602 158.346 281.093 158.27 280.679 158.11C280.22 158.008 279.755 157.939 279.286 157.903L278.599 157.847C278.363 157.847 278.137 157.847 277.911 157.847C277.457 157.881 277.007 157.954 276.565 158.063C276.138 158.171 275.716 158.303 275.304 158.459L274.993 158.553L274.711 158.694L274.155 158.958C273.815 159.098 273.485 159.262 273.167 159.447C272.894 159.617 272.621 159.758 272.404 159.88C271.962 160.115 271.68 160.238 271.68 160.238C271.68 160.238 271.793 159.974 272.047 159.522C272.169 159.306 272.32 159.023 272.517 158.722C272.731 158.375 272.991 158.058 273.289 157.781C273.606 157.407 273.966 157.072 274.362 156.783C274.82 156.454 275.309 156.17 275.822 155.936C276.095 155.823 276.386 155.719 276.678 155.616C276.978 155.495 277.297 155.425 277.62 155.409C277.94 155.362 278.25 155.314 278.561 155.286C278.872 155.258 279.201 155.286 279.502 155.286C280.141 155.346 280.772 155.472 281.385 155.663C281.677 155.776 281.95 155.898 282.232 156.021C282.505 156.131 282.766 156.266 283.014 156.425L283.729 156.868L284.35 157.357C284.678 157.699 284.98 158.064 285.254 158.449C285.73 158.979 286.14 159.564 286.478 160.191C286.628 160.422 286.754 160.668 286.854 160.925Z" fill="#352C38"/>
<path d="M256.552 160.925L255.855 160.539L255.13 160.115L254.189 159.588C253.812 159.428 253.445 159.212 253.022 159.052L252.306 158.779L251.647 158.534C251.214 158.346 250.706 158.27 250.292 158.11C249.833 158.008 249.367 157.939 248.898 157.903L248.211 157.847C247.985 157.847 247.75 157.847 247.524 157.847C247.073 157.881 246.626 157.953 246.187 158.063C245.756 158.169 245.332 158.302 244.917 158.459L244.606 158.553L244.323 158.694L243.777 158.958C243.452 159.098 243.138 159.262 242.836 159.447C242.554 159.617 242.281 159.758 242.064 159.88C241.631 160.115 241.349 160.238 241.349 160.238C241.453 159.992 241.573 159.753 241.706 159.522C241.829 159.306 241.979 159.023 242.177 158.722C242.391 158.375 242.651 158.058 242.949 157.781C243.269 157.407 243.632 157.072 244.032 156.783C244.485 156.452 244.971 156.168 245.481 155.936C245.754 155.823 246.046 155.719 246.338 155.616C246.639 155.497 246.957 155.427 247.279 155.409C247.599 155.362 247.919 155.314 248.221 155.286C248.522 155.258 248.861 155.286 249.162 155.286C249.801 155.346 250.432 155.472 251.045 155.663C251.337 155.776 251.61 155.898 251.892 156.021C252.165 156.131 252.426 156.266 252.673 156.425C252.918 156.576 253.163 156.717 253.389 156.868L254.01 157.357C254.928 158.127 255.697 159.059 256.279 160.106C256.397 160.369 256.488 160.644 256.552 160.925Z" fill="#352C38"/>
<path d="M231.897 164.304L240.068 170.602L260.637 171.242C260.637 171.242 265.937 163.815 270.362 171.242H291.561L297.934 165.274" stroke="#218AEF" stroke-width="1.43" stroke-miterlimit="10"/>
<path d="M250.056 181.842C255.91 181.842 260.656 177.096 260.656 171.242C260.656 165.388 255.91 160.643 250.056 160.643C244.202 160.643 239.457 165.388 239.457 171.242C239.457 177.096 244.202 181.842 250.056 181.842Z" fill="#A9C7DB" stroke="#218AEF" stroke-width="1.43" stroke-miterlimit="10"/>
<path d="M280.98 181.842C286.834 181.842 291.58 177.096 291.58 171.242C291.58 165.388 286.834 160.643 280.98 160.643C275.126 160.643 270.38 165.388 270.38 171.242C270.38 177.096 275.126 181.842 280.98 181.842Z" fill="#A9C7DB" stroke="#218AEF" stroke-width="1.43" stroke-miterlimit="10"/>
<path d="M255.592 172.523C255.592 172.523 255.526 172.259 255.375 171.826C255.179 171.232 254.933 170.656 254.641 170.103C254.256 169.372 253.72 168.73 253.069 168.221C252.713 167.945 252.311 167.735 251.883 167.599C251.668 167.517 251.443 167.463 251.214 167.439C250.981 167.397 250.745 167.378 250.508 167.383C250.283 167.368 250.056 167.368 249.83 167.383C249.58 167.408 249.331 167.452 249.087 167.515C248.672 167.62 248.282 167.806 247.938 168.061C247.602 168.309 247.309 168.611 247.072 168.955C246.861 169.29 246.678 169.643 246.526 170.009C246.302 170.587 246.138 171.186 246.037 171.798C245.99 172.037 245.955 172.279 245.933 172.523C245.873 172.282 245.832 172.036 245.811 171.788C245.741 171.132 245.772 170.468 245.905 169.821C245.999 169.378 246.148 168.948 246.347 168.541C246.601 168.04 246.955 167.597 247.387 167.239C247.82 166.881 248.321 166.616 248.861 166.46C249.12 166.386 249.384 166.333 249.652 166.3C249.946 166.278 250.242 166.278 250.536 166.3C250.828 166.298 251.118 166.33 251.403 166.394C251.691 166.432 251.972 166.508 252.24 166.62C252.517 166.704 252.781 166.828 253.022 166.987C253.261 167.13 253.485 167.297 253.69 167.486C254.412 168.144 254.944 168.983 255.234 169.915C255.438 170.524 255.562 171.157 255.601 171.798C255.613 172.039 255.61 172.281 255.592 172.523Z" fill="#352C38"/>
<path d="M282.825 172.08C282.825 172.08 282.759 171.817 282.609 171.384C282.41 170.794 282.164 170.221 281.875 169.67C281.485 168.939 280.946 168.298 280.293 167.788C279.939 167.519 279.541 167.315 279.116 167.185C278.902 167.1 278.677 167.043 278.448 167.016C278.215 166.972 277.978 166.956 277.742 166.969C277.513 166.954 277.284 166.954 277.055 166.969C276.807 166.994 276.562 167.038 276.32 167.1C275.907 167.208 275.517 167.393 275.172 167.646C274.839 167.899 274.547 168.2 274.306 168.541C274.087 168.872 273.904 169.225 273.76 169.595C273.54 170.168 273.373 170.761 273.261 171.365C273.186 171.817 273.158 172.08 273.158 172.08C273.094 171.845 273.047 171.606 273.016 171.365C272.946 170.708 272.978 170.044 273.11 169.397C273.195 168.948 273.344 168.514 273.553 168.108C273.804 167.606 274.156 167.161 274.587 166.801C275.018 166.442 275.518 166.175 276.057 166.018C276.317 165.95 276.581 165.897 276.848 165.858C277.161 165.838 277.476 165.838 277.789 165.858C278.08 165.857 278.371 165.889 278.655 165.952C278.943 165.991 279.225 166.066 279.493 166.178C279.77 166.265 280.033 166.392 280.274 166.554C280.516 166.694 280.74 166.861 280.943 167.053C281.634 167.699 282.146 168.513 282.43 169.416C282.628 170.026 282.748 170.659 282.788 171.299C282.821 171.558 282.834 171.819 282.825 172.08Z" fill="#352C38"/>
</g>
</g>
<defs>
<filter id="filter0_d_2884_14853" x="33" y="0" width="460" height="490" filterUnits="userSpaceOnUse" color-interpolation-filters="sRGB">
<feFlood flood-opacity="0" result="BackgroundImageFix"/>
<feColorMatrix in="SourceAlpha" type="matrix" values="0 0 0 0 0 0 0 0 0 0 0 0 0 0 0 0 0 0 127 0" result="hardAlpha"/>
<feOffset dy="8"/>
<feGaussianBlur stdDeviation="40"/>
<feColorMatrix type="matrix" values="0 0 0 0 0.109804 0 0 0 0 0.109804 0 0 0 0 0.12549 0 0 0 0.12 0"/>
<feBlend mode="normal" in2="BackgroundImageFix" result="effect1_dropShadow_2884_14853"/>
<feBlend mode="normal" in="SourceGraphic" in2="effect1_dropShadow_2884_14853" result="shape"/>
</filter>
<linearGradient id="paint0_linear_2884_14853" x1="150" y1="22" x2="150" y2="352" gradientUnits="userSpaceOnUse">
<stop offset="0.208333" stop-color="#F3F4F8"/>
<stop offset="1" stop-color="#F3F4F8" stop-opacity="0.21"/>
</linearGradient>
<clipPath id="clip0_2884_14853">
<rect width="140" height="158.527" fill="white" transform="translate(80 73)"/>
</clipPath>
<clipPath id="clip1_2884_14853">
<rect width="140" height="168.994" fill="white" transform="translate(193 113)"/>
</clipPath>
</defs>
</svg>
