<svg width="280" height="281" viewBox="0 0 280 281" fill="none" xmlns="http://www.w3.org/2000/svg">
<g clip-path="url(#clip0_2829_14567)" filter="url(#filter0_d_2829_14567)">
<path d="M80.1727 138.235L80.0094 128.881C80.1646 127.743 80.3323 126.606 80.4749 125.466C81.9798 113.378 86.526 102.56 94.6311 93.4701C109.441 76.8685 128.094 69.9137 150.008 73.5662C170.746 77.0204 185.594 88.9444 194.577 107.953C198.608 116.481 200.198 125.567 199.809 134.997C199.575 134.874 199.354 134.728 199.149 134.562C194.744 130.263 190.344 125.959 185.949 121.649C177.195 113.107 168.434 104.57 159.667 96.0386C159.369 95.8122 159.045 95.6226 158.701 95.4741L158.754 95.4732L158.409 95.2229C158.16 94.9335 157.905 94.6441 157.659 94.3484C152.851 88.5626 146.721 85.6098 139.159 85.7262C137.911 85.8261 136.661 85.8448 135.448 86.0378C125.265 87.6408 116.835 96.8925 116.383 107.186C116.187 111.687 116.409 116.209 116.441 120.722C114.879 120.749 113.319 120.886 111.773 120.803C110.588 120.752 110.276 121.142 110.299 122.317C110.606 137.535 110.856 152.752 111.131 167.968C111.168 168.425 111.237 168.878 111.339 169.324C111.644 169.722 111.968 170.103 112.312 170.467C119.323 177.248 126.337 184.027 133.355 190.806C133.682 191.172 133.981 191.563 134.25 191.975C133.786 191.997 133.322 191.993 132.859 191.962C122.895 190.726 113.738 187.323 105.565 181.471C92.5445 172.147 84.3686 159.631 81.1874 143.903C80.8048 142.038 80.5184 140.133 80.1727 138.235Z" fill="#434396"/>
<path d="M158.701 95.4742C159.045 95.6227 159.369 95.8122 159.667 96.0386C168.436 104.568 177.197 113.105 185.949 121.649C190.352 125.948 194.752 130.252 199.149 134.562C199.354 134.728 199.576 134.874 199.809 134.997C199.631 137.126 199.572 139.274 199.252 141.377C197.403 153.286 192.505 163.795 184.372 172.713C175.104 182.876 163.675 189.192 150.092 191.552C148.705 191.791 147.322 192.053 145.939 192.305L135.878 192.481L134.244 191.997C133.976 191.585 133.676 191.194 133.349 190.828C126.344 184.043 119.329 177.263 112.303 170.489C111.965 170.124 111.645 169.743 111.345 169.346L119.509 169.176L140.618 168.767C150.127 168.613 159.634 168.464 169.139 168.319C170.077 168.302 170.084 167.808 170.072 167.121C169.977 162.563 169.913 158.004 169.833 153.448C169.645 142.693 169.442 131.942 169.292 121.19C169.273 120.106 168.955 119.78 167.893 119.852C166.301 119.955 164.7 119.908 163.103 119.917C163.04 116.301 162.977 112.684 162.914 109.068C162.861 106.053 162.422 103.095 161.198 100.322C160.451 98.6629 159.532 97.088 158.701 95.4742Z" fill="#434396"/>
<path d="M140.612 168.767L119.503 169.176L111.345 169.346C111.244 168.9 111.175 168.447 111.137 167.99C110.872 152.774 110.606 137.557 110.306 122.338C110.285 121.151 110.591 120.771 111.78 120.825C113.344 120.892 114.904 120.77 116.448 120.744L126.759 120.564L139.78 120.421C139.856 124.76 139.932 129.1 140.008 133.441C138.679 133.945 137.234 134.264 136.047 134.994C134.148 136.165 133.349 138.045 133.589 140.285C133.82 142.434 135.088 143.806 137.039 144.572C138.081 144.979 139.158 145.295 140.221 145.654C140.233 147.167 140.242 148.679 140.25 150.192C138.372 150.025 136.836 149.067 135.339 147.818L133.138 150.994C135.196 153.068 137.702 153.75 140.364 154.069L140.612 168.767ZM117.394 148.103L115.234 151.282C118.377 154.621 125.272 155.37 128.987 152.942C132.17 150.858 132.814 144.993 128.367 143.055C127.247 142.601 126.1 142.219 124.931 141.911C123.703 141.548 122.421 141.355 121.231 140.876C120.936 140.733 120.675 140.529 120.464 140.278C120.254 140.027 120.098 139.734 120.009 139.419C119.828 138.559 120.525 138.003 121.33 137.748C121.773 137.607 122.233 137.526 122.698 137.506C124.884 137.43 126.81 138.162 128.581 139.535L130.798 136.527C127.745 133.211 120.688 132.831 117.484 135.712C114.478 138.412 115.111 142.998 118.748 144.716C119.674 145.121 120.632 145.448 121.612 145.695C122.847 146.042 124.123 146.276 125.345 146.642C126.231 146.914 127.206 147.254 127.168 148.461C127.129 149.668 126.197 150.159 125.19 150.455C124.736 150.566 124.269 150.622 123.802 150.62C121.334 150.713 119.267 149.764 117.394 148.103Z" fill="#34CCA9" fill-opacity="0.7"/>
<path d="M126.746 120.551L116.435 120.731C116.403 116.219 116.181 111.697 116.377 107.196C116.823 96.9022 125.26 87.6629 135.442 86.0474C136.667 85.8541 137.917 85.8355 139.153 85.7357L139.331 95.9498C132.482 96.0694 126.07 101.698 126.534 110.385C126.722 113.766 126.687 117.161 126.746 120.551Z" fill="#FEFDFD"/>
<path d="M139.337 95.9465L139.159 85.7324C146.721 85.6161 152.851 88.5689 157.659 94.3546C157.905 94.6629 158.16 94.9397 158.409 95.2292L158.754 95.4794L158.701 95.4804C159.532 97.0911 160.451 98.6691 161.183 100.328C162.406 103.101 162.846 106.06 162.898 109.075C162.961 112.691 163.025 116.307 163.088 119.923L152.795 120.103C152.734 116.556 152.722 113.009 152.585 109.464C152.556 108.025 152.352 106.595 151.976 105.205C150.344 99.63 145.802 96.3587 139.337 95.9465Z" fill="#E8EBF3"/>
<path d="M158.754 95.4795L158.409 95.2292L158.754 95.4795Z" fill="#F82814"/>
<path d="M152.795 120.097L163.091 119.917C164.687 119.889 166.289 119.955 167.881 119.852C168.948 119.78 169.264 120.106 169.279 121.19C169.43 131.942 169.633 142.694 169.821 153.448C169.9 158.004 169.98 162.563 170.059 167.121C170.071 167.809 170.08 168.309 169.127 168.319C159.617 168.452 150.11 168.601 140.605 168.767L140.349 154.081L140.319 153.994C141.823 153.856 143.374 153.904 144.821 153.535C147.771 152.789 149.357 150.68 149.41 147.829C149.475 145.08 148.162 143.272 145.162 142.277C143.509 141.728 141.781 141.398 140.083 140.981L140.109 140.89C140.088 139.69 140.067 138.49 140.047 137.29L140.02 137.191C142.396 137.087 144.563 137.671 146.494 139.266L148.793 136.122C146.117 133.925 143.173 133.251 139.944 133.57C139.956 133.532 139.964 133.493 139.97 133.454C139.894 129.115 139.819 124.775 139.743 120.434L152.795 120.097ZM152.19 133.609L152.537 153.444L165.063 153.225L164.999 149.544L156.606 149.691L156.324 133.537L152.19 133.609Z" fill="#34CCA9"/>
<path d="M152.795 120.097L139.761 120.408L126.746 120.551C126.687 117.161 126.728 113.766 126.547 110.381C126.083 101.694 132.495 96.0691 139.344 95.9464C145.808 96.3587 150.347 99.63 151.982 105.199C152.358 106.589 152.563 108.019 152.591 109.458C152.722 113.003 152.734 116.55 152.795 120.097Z" fill="#434396"/>
<path d="M117.394 148.103C119.267 149.765 121.347 150.713 123.814 150.62C124.282 150.622 124.748 150.566 125.202 150.455C126.21 150.159 127.139 149.702 127.18 148.461C127.221 147.219 126.244 146.914 125.358 146.642C124.132 146.263 122.847 146.042 121.625 145.695C120.645 145.448 119.687 145.121 118.76 144.716C115.117 142.998 114.49 138.412 117.497 135.712C120.7 132.843 127.767 133.211 130.81 136.527L128.593 139.535C126.822 138.162 124.894 137.43 122.71 137.506C122.245 137.526 121.786 137.607 121.342 137.748C120.537 138.003 119.841 138.559 120.021 139.419C120.111 139.734 120.266 140.027 120.477 140.278C120.687 140.529 120.949 140.733 121.244 140.876C122.421 141.355 123.715 141.548 124.944 141.911C126.108 142.22 127.251 142.602 128.367 143.055C132.814 144.993 132.17 150.858 128.987 152.942C125.279 155.37 118.389 154.621 115.234 151.282L117.394 148.103Z" fill="#575B64"/>
<path d="M140.214 145.642C139.152 145.282 138.074 144.967 137.032 144.56C135.081 143.794 133.813 142.428 133.582 140.272C133.343 138.033 134.135 136.153 136.04 134.982C137.227 134.252 138.672 133.933 140.001 133.428C139.995 133.467 139.987 133.506 139.975 133.544C139.996 134.757 140.017 135.966 140.038 137.178L140.065 137.278C138.97 137.369 138.048 137.75 137.907 138.981C137.77 140.29 138.871 140.499 139.771 140.824C139.883 140.852 139.997 140.869 140.112 140.874L140.086 140.965C140.112 142.488 140.139 144.01 140.165 145.53L140.214 145.642Z" fill="#575B64"/>
<path d="M140.365 154.078C137.702 153.759 135.196 153.078 133.138 151.004L135.332 147.806C136.829 149.055 138.356 150.013 140.243 150.18C140.244 150.22 140.267 150.257 140.28 150.298L140.344 153.991L140.365 154.078Z" fill="#585C63"/>
<path d="M140.28 150.298C140.279 150.257 140.254 150.22 140.243 150.18C140.234 148.667 140.224 147.154 140.214 145.642L140.184 145.533C141.34 145.825 142.51 146.118 143.639 146.467C144.437 146.718 145.176 147.152 145.134 148.15C145.126 148.585 144.967 149.003 144.685 149.333C144.403 149.664 144.015 149.886 143.587 149.962C142.519 150.206 141.388 150.197 140.28 150.298Z" fill="#34CCA9"/>
<path d="M152.19 133.609L156.324 133.537L156.606 149.691L164.999 149.545L165.063 153.225L152.537 153.444L152.19 133.609Z" fill="#363B3F"/>
<path d="M140.28 150.298C141.388 150.197 142.519 150.199 143.599 149.962C144.027 149.886 144.415 149.664 144.697 149.333C144.98 149.003 145.138 148.585 145.146 148.15C145.188 147.152 144.449 146.718 143.651 146.467C142.51 146.105 141.34 145.838 140.197 145.533C140.17 144.01 140.143 142.489 140.117 140.968C141.815 141.392 143.543 141.715 145.197 142.264C148.196 143.262 149.509 145.07 149.444 147.816C149.378 150.673 147.793 152.783 144.856 153.522C143.409 153.891 141.858 153.843 140.353 153.981L140.28 150.298Z" fill="#353A3F"/>
<path d="M140.051 137.178C140.03 135.966 140.009 134.756 139.987 133.544C143.217 133.225 146.16 133.899 148.836 136.096L146.538 139.24C144.594 137.667 142.428 137.08 140.051 137.178Z" fill="#373B3F"/>
<path d="M140.137 140.871C140.022 140.865 139.908 140.848 139.796 140.82C138.89 140.492 137.795 140.283 137.932 138.978C138.06 137.747 138.982 137.365 140.09 137.274C140.099 138.477 140.116 139.677 140.137 140.871Z" fill="#68D3BA"/>
</g>
<defs>
<filter id="filter0_d_2829_14567" x="-0.958008" y="-0.639404" width="282.076" height="282.076" filterUnits="userSpaceOnUse" color-interpolation-filters="sRGB">
<feFlood flood-opacity="0" result="BackgroundImageFix"/>
<feColorMatrix in="SourceAlpha" type="matrix" values="0 0 0 0 0 0 0 0 0 0 0 0 0 0 0 0 0 0 127 0" result="hardAlpha"/>
<feOffset dy="8"/>
<feGaussianBlur stdDeviation="40"/>
<feColorMatrix type="matrix" values="0 0 0 0 0.109804 0 0 0 0 0.109804 0 0 0 0 0.12549 0 0 0 0.12 0"/>
<feBlend mode="normal" in2="BackgroundImageFix" result="effect1_dropShadow_2829_14567"/>
<feBlend mode="normal" in="SourceGraphic" in2="effect1_dropShadow_2829_14567" result="shape"/>
</filter>
<clipPath id="clip0_2829_14567">
<rect width="120" height="120" fill="white" transform="translate(79.042 73.4548) rotate(-1)"/>
</clipPath>
</defs>
</svg>
